<svg xmlns="http://www.w3.org/2000/svg" viewBox="0 0 612 612"><path d="M552.548 243.974a10.768 10.768 0 0 0-.274-.536L479.278 83.931 442.656 3.908A6.69 6.69 0 0 0 435.89.035c-28.561 2.938-56.74 10.905-86.15 24.366-36.218 16.574-69.888 39.494-102.446 61.658-32.103 21.852-65.298 44.448-100.486 60.551-28.063 12.842-54.87 20.439-81.957 23.218a6.698 6.698 0 0 0-5.122 3.335 6.688 6.688 0 0 0-.275 6.109L249.38 596.009C253.982 606.066 263.909 612 274.292 612c3.81 0 7.684-.8 11.376-2.49 13.749-6.291 19.796-22.537 13.504-36.289L225.807 412.9c12.003-3.743 24.101-8.403 36.416-14.04.004 0 .011-.006.017-.009 36.213-16.572 69.878-39.487 102.435-61.652 32.105-21.85 65.301-44.455 100.494-60.554 28.063-12.844 54.872-20.441 81.958-23.225a6.62 6.62 0 0 0 2.1-.568c.005-.006.013-.013.022-.013a6.692 6.692 0 0 0 3.299-8.865z"/></svg>