<svg xmlns="http://www.w3.org/2000/svg" width="512" height="512" viewBox="0 0 144.083 144"><path d="M72.042 24.979C46.113 24.979 25.02 46.072 25.02 72s21.094 47.021 47.022 47.021c25.928 0 47.021-21.094 47.021-47.021S97.969 24.979 72.042 24.979zm0 88.042c-22.62 0-41.022-18.402-41.022-41.021s18.402-41.021 41.022-41.021c22.619 0 41.021 18.402 41.021 41.021s-18.402 41.021-41.021 41.021z"/><path d="M92.291 47.824l-29.896 12.57c-.308.1-.595.249-.852.438a3.011 3.011 0 0 0-1.112 1.538L47.865 92.25a3 3 0 0 0 3.928 3.929l29.922-12.58c.301-.1.581-.247.832-.433a3.008 3.008 0 0 0 1.11-1.535L96.22 51.754a2.998 2.998 0 0 0-.645-3.284 2.998 2.998 0 0 0-3.284-.646zM64.342 68.543l11.156 11.159-19.253 8.095 8.097-19.254zm15.4 6.917L68.584 64.3l19.254-8.095-8.096 19.255z"/></svg>