<svg xmlns="http://www.w3.org/2000/svg" viewBox="0 0 512.717 512.717"><g fill="#757575"><path d="M153.71 1.267a10.667 10.667 0 0 0-11.627 2.304L56.75 88.904c-4.171 4.16-4.179 10.914-.019 15.085a10.667 10.667 0 0 0 7.571 3.134h85.333c5.891 0 10.667-4.776 10.667-10.667V11.123a10.667 10.667 0 0 0-6.592-9.856z"/><path d="M428.398 69.939a88.79 88.79 0 0 0-65.429-26.816h-59.584l-.789-.789C285.124 24.67 261.167.457 234.969.457c-25.86-3.595-49.739 14.455-53.333 40.316a47.3 47.3 0 0 0 0 13.018v42.667c0 17.673-14.327 32-32 32H64.302a10.672 10.672 0 0 0-7.211 2.816 98.558 98.558 0 0 0-24.789 71.851c0 62.72 26.752 181.333 128 181.333 41.237 0 69.696-8.533 86.976-25.813a66.877 66.877 0 0 0 18.304-38.4 85.487 85.487 0 0 0 54.72 21.547c28.928 0 53.333 39.317 53.333 64 0 24.363-12.928 42.667-21.333 42.667h-42.667c-10.069 0-21.333-4.565-21.333-10.667 0-5.163 11.221-10.667 32-10.667 5.891 0 10.667-4.776 10.667-10.667v-42.667c0-5.891-4.776-10.667-10.667-10.667-20.288 0-96 10.859-96 64-3.549 43.579 28.901 81.784 72.48 85.333a79.25 79.25 0 0 0 12.853 0h53.333c64.768 0 117.333-109.739 117.333-181.333l.128-16.896c.705-66.305 2.049-189.633-52.031-244.289zm-16.043 205.482a10.67 10.67 0 0 1-6.72 2.368 11.244 11.244 0 0 1-2.133-.235c-21.995-4.672-83.2-20.779-85.845-21.461a10.665 10.665 0 0 1-7.957-10.304c0-18.027 19.307-53.333 42.667-53.333 36.011 0 64 59.563 64 74.667a10.668 10.668 0 0 1-4.012 8.298z"/></g></svg>