<?xml version="1.0" encoding="UTF-8"?><!DOCTYPE svg PUBLIC "-//W3C//DTD SVG 1.1//EN" "http://www.w3.org/Graphics/SVG/1.1/DTD/svg11.dtd"><svg viewBox="0 0 716.988 646.772" xmlns="http://www.w3.org/2000/svg" xmlns:xlink="http://www.w3.org/1999/xlink"><style>:root>svg{display:none}:root>svg:target{display:block}</style><svg viewBox="0 0 49762 26221" shape-rendering="geometricPrecision" text-rendering="geometricPrecision" image-rendering="optimizeQuality" fill-rule="evenodd" clip-rule="evenodd" id="image-360" xmlns="http://www.w3.org/2000/svg"><defs><style>.afil0{fill:#000}.afil1{fill:#2b2a29;fill-rule:nonzero}</style></defs><g id="a__x0023_Layer_x0020_1"><g id="a_1874495940912"><path class="afil0" d="M40587 6246c-550-158-1124 161-1282 712-157 550 162 1124 712 1281 4732 1354 7671 3317 7671 5123 0 1322-1608 2773-4411 3981-3084 1329-7460 2302-12325 2740l-4247-58h-15c-566 0-1028 455-1036 1023-8 572 450 1043 1023 1050l4300 59h14c31 0 61-2 92-4 5100-455 9722-1487 13015-2906 4681-2017 5664-4314 5664-5885 0-2897-3258-5424-9175-7116zM18957 16075c-370-437-1024-492-1461-122s-492 1024-122 1461l2319 2741c-4893-373-9325-1270-12583-2555-3201-1263-5037-2808-5037-4238 0-1661 2461-3450 6583-4787 544-177 843-761 666-1306s-761-843-1306-666c-2398 777-4299 1703-5651 2750C796 10568 0 11916 0 13362c0 2395 2196 4527 6349 6166 3376 1332 7902 2268 12879 2671l-2068 2291c-384 425-350 1081 75 1464 198 179 447 267 694 267 283 0 566-115 770-342l3772-4180c172-191 268-438 268-695v-79c0-245-87-482-246-670l-3536-4180z"/><path class="afil1" d="M15781 6516c887 145 1566 475 2039 991 472 516 708 1154 708 1916 0 588-154 1130-463 1627-308 496-778 894-1410 1193-631 298-1405 448-2320 448-714 0-1415-94-2104-282-690-188-1275-456-1757-803l911-1793c385 289 831 514 1337 673s1025 238 1555 238c588 0 1051-113 1388-339 337-227 506-548 506-962 0-829-631-1244-1894-1244h-1070V6632l2082-2357h-4309V2395h7085v1519l-2284 2602zm8705-347c646 0 1234 131 1764 391s949 629 1258 1106c308 477 463 1029 463 1656 0 675-169 1267-507 1778-337 511-797 904-1380 1179-584 275-1232 412-1945 412-1417 0-2526-434-3326-1302-800-867-1200-2106-1200-3716 0-1147 216-2130 650-2950 434-819 1039-1441 1815-1865s1675-636 2697-636c540 0 1058 60 1554 180 497 121 919 292 1266 514l-868 1721c-501-338-1133-507-1894-507-858 0-1538 251-2039 752-501 502-771 1230-810 2184 598-598 1432-897 2502-897zm-477 4772c501 0 908-135 1221-405 314-270 470-636 470-1099 0-462-156-831-470-1106-313-275-730-412-1250-412-511 0-931 142-1258 427-328 284-492 648-492 1091 0 444 159 805 477 1085 318 279 752 419 1302 419zm9153 1750c-839 0-1586-207-2242-622-655-414-1168-1015-1540-1800-371-786-556-1723-556-2813 0-1089 185-2027 556-2812 372-786 885-1386 1540-1800 656-415 1403-622 2242-622 838 0 1586 207 2241 622 656 414 1169 1014 1540 1800 371 785 557 1723 557 2812 0 1090-186 2027-557 2813-371 785-884 1386-1540 1800-655 415-1403 622-2241 622zm0-1981c617 0 1101-265 1453-795 352-531 528-1350 528-2459 0-1108-176-1928-528-2458s-836-795-1453-795c-607 0-1087 265-1439 795s-528 1350-528 2458c0 1109 176 1928 528 2459 352 530 832 795 1439 795zM40180 3692c-377 0-716-79-1016-236-300-158-534-377-703-657s-253-597-253-953c0-355 84-673 253-953s403-499 703-656c300-158 639-237 1016-237 378 0 716 79 1014 237 297 157 530 376 699 656s254 598 254 953c0 356-85 673-254 953s-402 499-699 657c-298 157-636 236-1014 236zm0-853c267 0 486-90 657-270s257-421 257-723-86-543-257-723-390-270-657-270c-266 0-486 90-659 270-174 180-260 421-260 723s86 543 260 723c173 180 393 270 659 270z"/></g></g></svg><svg viewBox="0 0 407.436 407.436" id="image-chevron--purple" xmlns="http://www.w3.org/2000/svg"><path fill="#42024e" d="M112.814 0L91.566 21.178l181.946 182.54-181.946 182.54 21.248 21.178 203.055-203.718z"/></svg><svg viewBox="0 0 256 256" id="image-chevron--small--purple" xmlns="http://www.w3.org/2000/svg"><path fill="#42024e" d="M79.093 0L48.907 30.187 146.72 128l-97.813 97.813L79.093 256l128-128z"/></svg><svg viewBox="0 0 256 256" id="image-chevron--small--yellow" xmlns="http://www.w3.org/2000/svg"><path fill="#f2bb1a" d="M79.093 0L48.907 30.187 146.72 128l-97.813 97.813L79.093 256l128-128z"/></svg><svg viewBox="0 0 407.436 407.436" id="image-chevron--yellow" xmlns="http://www.w3.org/2000/svg"><path fill="#f2bb1a" d="M112.814 0L91.566 21.178l181.946 182.54-181.946 182.54 21.248 21.178 203.055-203.718z"/></svg><svg viewBox="0 0 47.971 47.971" id="image-close" xmlns="http://www.w3.org/2000/svg"><path fill="#fff" d="M28.228 23.986L47.092 5.122a2.998 2.998 0 0 0 0-4.242 2.998 2.998 0 0 0-4.242 0L23.986 19.744 5.121.88a2.998 2.998 0 0 0-4.242 0 2.998 2.998 0 0 0 0 4.242l18.865 18.864L.879 42.85a2.998 2.998 0 1 0 4.242 4.241l18.865-18.864L42.85 47.091c.586.586 1.354.879 2.121.879s1.535-.293 2.121-.879a2.998 2.998 0 0 0 0-4.242L28.228 23.986z"/></svg><svg viewBox="0 0 244 335" shape-rendering="geometricPrecision" text-rendering="geometricPrecision" image-rendering="optimizeQuality" fill-rule="evenodd" clip-rule="evenodd" id="image-contact_1" xmlns="http://www.w3.org/2000/svg"><defs><style>.gfil0{fill:#fff}</style></defs><path class="gfil0" d="M122 0c67 0 122 55 122 122 0 50-65 143-105 200-12 17-23 16-33 0C66 264 0 172 0 122 0 55 55 0 122 0zm0 71c27 0 50 22 50 49 0 28-23 50-50 50s-50-22-50-50c0-27 23-49 50-49z" id="g__x0023_Layer_x0020_1"/></svg><svg viewBox="0 0 206 312" shape-rendering="geometricPrecision" text-rendering="geometricPrecision" image-rendering="optimizeQuality" fill-rule="evenodd" clip-rule="evenodd" id="image-contact_2" xmlns="http://www.w3.org/2000/svg"><defs><style>.hfil0{fill:#fff}</style></defs><path class="hfil0" d="M106 60L81 3C71-1 59-1 50 3 14 19 0 53 0 110c12 63 41 120 84 172 34 29 70 37 113 23 10-8 10-17 8-25-5-19-14-38-26-57-7-5-13-6-22-3-10 4-20 12-27 23-8 2-16 0-23-6-17-42-31-75-56-110-5-9-4-18 1-27 20-2 32-9 47-21 7-5 9-11 7-19z" id="h__x0023_Layer_x0020_1"/></svg><svg viewBox="0 0 357 256" shape-rendering="geometricPrecision" text-rendering="geometricPrecision" image-rendering="optimizeQuality" fill-rule="evenodd" clip-rule="evenodd" id="image-contact_3" xmlns="http://www.w3.org/2000/svg"><defs><style>.ifil0{fill:#fff}</style></defs><path class="ifil0" d="M14 0h329L178 165 14 0zm343 18v221L246 129 357 18zm-15 238H15l111-111 37 36c8 8 22 8 31 0l36-36 112 111zM0 239V18l111 111L0 239z" id="i__x0023_Layer_x0020_1"/></svg><svg clip-rule="evenodd" fill-rule="evenodd" image-rendering="optimizeQuality" shape-rendering="geometricPrecision" text-rendering="geometricPrecision" viewBox="0 0 82586 22528" id="image-forum-logo" xmlns="http://www.w3.org/2000/svg"><path d="M68885 8180v4364c0 1298-284 2114-852 2448-516 308-1753 462-3713 462-1953 0-3188-154-3703-462-568-341-853-1157-853-2448V8180h2208v4364c0 435 120 712 361 833 287 147 950 221 1987 221 1023 0 1672-69 1946-206s412-420 412-848V8180zm-17436 1845v1455h3543c240 0 412-52 516-155 104-104 156-293 156-567s-54-465-161-572-277-161-511-161zm-2207-1856h6422c789 0 1348 144 1675 432 354 314 532 866 532 1655 0 616-74 1070-220 1364-148 296-405 516-773 663 401 174 667 348 797 522s196 485 196 933v1606h-2207v-1286c0-186-51-343-151-470-127-168-318-252-571-252h-3493v2008h-2207zm-9115 3592c0 917 105 1450 316 1601s948 226 2213 226c1270 0 2011-75 2222-226s316-684 316-1601c0-923-105-1460-316-1610s-948-226-2213-226c-1270 0-2011 76-2222 226s-316 687-316 1610zm7275 0c0 1746-211 2790-632 3132-455 367-1827 551-4114 551-1673 0-2770-60-3292-181-655-153-1070-488-1243-1003-135-395-202-1228-202-2499 0-1746 208-2789 623-3130 455-374 1826-562 4114-562 2281 0 3649 184 4103 552 429 348 643 1394 643 3140zm25551-2044l2910 5637h1806l2709-5636v5636h2208V8190h-3763c-685 1461-1377 2931-2058 4385-686-1462-1371-2924-2056-4385h-3964v7164h2208V9717zm-55946 4866l2885 3880c-1011-1050-2391-1660-3769-1808v-6c-1420-144-2785-786-3812-1887l-2176-2595h1881c1889-46 3770 790 4991 2416zm-4804-6419h8438v4414h-5143c-1222-1412-2992-2127-4753-2080H8735L5036 6084h2447c1754-42 3502 676 4720 2080zm-1089-1471l-220-261C9675 5066 7945 4369 6213 4416H3638L0 2h3014c1834-44 3661 743 4883 2277h17942v4414H11114zm44164 13469h3021c197 0 352-67 469-201 115-133 173-345 173-635 0-289-57-502-170-638-114-136-273-204-479-204h-3014zm-682 2279v-4572h3730c406 0 723 120 953 361 229 240 345 606 345 1096s-118 854-351 1093c-235 238-559 358-974 358h-3021v1664zm-5428-1330c0 356 99 576 298 659 197 82 725 123 1580 123 865 0 1395-41 1591-123 196-83 295-303 295-659v-3242h681v3242c0 628-124 1014-374 1156-276 161-1008 241-2193 241-1181 0-1903-76-2166-227-262-152-394-542-394-1170v-3242h682zm-4399 782c1052 0 1671-78 1859-234 187-156 280-655 280-1497 0-847-92-1348-277-1504s-806-235-1862-235-1677 79-1862 235-277 657-277 1504c0 838 94 1335 281 1494 187 158 806 237 1858 237zm0 615c-949 0-1613-61-1992-184-379-122-619-355-722-698-71-237-107-724-107-1464 0-754 34-1242 101-1464 102-348 345-584 728-709 384-125 1047-187 1992-187 949 0 1612 61 1989 184 376 122 618 357 725 705 72 236 107 726 107 1471 0 748-33 1234-100 1457-103 347-343 583-722 705-379 123-1045 184-1999 184zm-8690-2340h3149c249 0 432-42 548-126 174-130 260-368 260-716 0-347-84-584-253-709-121-89-306-133-555-133h-3149zm-682-2299h4105c387 0 686 132 896 398 209 265 314 618 314 1059 0 378-61 662-181 849-85 134-221 241-407 321 164 67 293 154 387 261 134 152 201 338 201 561v1123h-676v-1123c0-151-72-277-217-378-145-100-320-150-524-150h-3216v1651h-682zm-6023 2293c0 842 91 1343 274 1504 183 160 765 241 1745 241 958 0 1536-57 1735-168 198-111 298-450 298-1016h-2207v-615h2888v615c0 789-160 1287-481 1494-321 208-1065 311-2233 311-1186 0-1932-136-2239-408-308-272-462-926-462-1965 0-1038 153-1691 458-1955 305-265 1053-398 2243-398 1172 0 1917 88 2236 264 318 176 478 607 478 1293h-681c0-441-107-707-322-798-214-92-784-138-1711-138-989 0-1573 79-1751 235-179 156-268 657-268 1504zm-592-4818V8169h7666v1856h-5459v1234h5158v1857h-5158v2228z" fill="#082a51" fill-rule="nonzero"/></svg><svg clip-rule="evenodd" fill-rule="evenodd" image-rendering="optimizeQuality" shape-rendering="geometricPrecision" text-rendering="geometricPrecision" viewBox="0 0 82586 22528" id="image-forum-logo--white" xmlns="http://www.w3.org/2000/svg"><path d="M68885 8180v4364c0 1298-284 2114-852 2448-516 308-1753 462-3713 462-1953 0-3188-154-3703-462-568-341-853-1157-853-2448V8180h2208v4364c0 435 120 712 361 833 287 147 950 221 1987 221 1023 0 1672-69 1946-206s412-420 412-848V8180zm-17436 1845v1455h3543c240 0 412-52 516-155 104-104 156-293 156-567s-54-465-161-572-277-161-511-161zm-2207-1856h6422c789 0 1348 144 1675 432 354 314 532 866 532 1655 0 616-74 1070-220 1364-148 296-405 516-773 663 401 174 667 348 797 522s196 485 196 933v1606h-2207v-1286c0-186-51-343-151-470-127-168-318-252-571-252h-3493v2008h-2207zm-9115 3592c0 917 105 1450 316 1601s948 226 2213 226c1270 0 2011-75 2222-226s316-684 316-1601c0-923-105-1460-316-1610s-948-226-2213-226c-1270 0-2011 76-2222 226s-316 687-316 1610zm7275 0c0 1746-211 2790-632 3132-455 367-1827 551-4114 551-1673 0-2770-60-3292-181-655-153-1070-488-1243-1003-135-395-202-1228-202-2499 0-1746 208-2789 623-3130 455-374 1826-562 4114-562 2281 0 3649 184 4103 552 429 348 643 1394 643 3140zm25551-2044l2910 5637h1806l2709-5636v5636h2208V8190h-3763c-685 1461-1377 2931-2058 4385-686-1462-1371-2924-2056-4385h-3964v7164h2208V9717zm-55946 4866l2885 3880c-1011-1050-2391-1660-3769-1808v-6c-1420-144-2785-786-3812-1887l-2176-2595h1881c1889-46 3770 790 4991 2416zm-4804-6419h8438v4414h-5143c-1222-1412-2992-2127-4753-2080H8735L5036 6084h2447c1754-42 3502 676 4720 2080zm-1089-1471l-220-261C9675 5066 7945 4369 6213 4416H3638L0 2h3014c1834-44 3661 743 4883 2277h17942v4414H11114zm44164 13469h3021c197 0 352-67 469-201 115-133 173-345 173-635 0-289-57-502-170-638-114-136-273-204-479-204h-3014zm-682 2279v-4572h3730c406 0 723 120 953 361 229 240 345 606 345 1096s-118 854-351 1093c-235 238-559 358-974 358h-3021v1664zm-5428-1330c0 356 99 576 298 659 197 82 725 123 1580 123 865 0 1395-41 1591-123 196-83 295-303 295-659v-3242h681v3242c0 628-124 1014-374 1156-276 161-1008 241-2193 241-1181 0-1903-76-2166-227-262-152-394-542-394-1170v-3242h682zm-4399 782c1052 0 1671-78 1859-234 187-156 280-655 280-1497 0-847-92-1348-277-1504s-806-235-1862-235-1677 79-1862 235-277 657-277 1504c0 838 94 1335 281 1494 187 158 806 237 1858 237zm0 615c-949 0-1613-61-1992-184-379-122-619-355-722-698-71-237-107-724-107-1464 0-754 34-1242 101-1464 102-348 345-584 728-709 384-125 1047-187 1992-187 949 0 1612 61 1989 184 376 122 618 357 725 705 72 236 107 726 107 1471 0 748-33 1234-100 1457-103 347-343 583-722 705-379 123-1045 184-1999 184zm-8690-2340h3149c249 0 432-42 548-126 174-130 260-368 260-716 0-347-84-584-253-709-121-89-306-133-555-133h-3149zm-682-2299h4105c387 0 686 132 896 398 209 265 314 618 314 1059 0 378-61 662-181 849-85 134-221 241-407 321 164 67 293 154 387 261 134 152 201 338 201 561v1123h-676v-1123c0-151-72-277-217-378-145-100-320-150-524-150h-3216v1651h-682zm-6023 2293c0 842 91 1343 274 1504 183 160 765 241 1745 241 958 0 1536-57 1735-168 198-111 298-450 298-1016h-2207v-615h2888v615c0 789-160 1287-481 1494-321 208-1065 311-2233 311-1186 0-1932-136-2239-408-308-272-462-926-462-1965 0-1038 153-1691 458-1955 305-265 1053-398 2243-398 1172 0 1917 88 2236 264 318 176 478 607 478 1293h-681c0-441-107-707-322-798-214-92-784-138-1711-138-989 0-1573 79-1751 235-179 156-268 657-268 1504zm-592-4818V8169h7666v1856h-5459v1234h5158v1857h-5158v2228z" fill="#fff" fill-rule="nonzero"/></svg><svg viewBox="0 0 118503 84675" shape-rendering="geometricPrecision" text-rendering="geometricPrecision" image-rendering="optimizeQuality" fill-rule="evenodd" clip-rule="evenodd" id="image-forum_emblem--grey" xmlns="http://www.w3.org/2000/svg"><defs><style>.lfil0{fill:#cdcdcd;fill-rule:nonzero}</style></defs><g id="l__x0023_Layer_x0020_1"><g id="l_1887763395632"><path class="lfil0" d="M77999 66879v2l13231 17794c-4639-4815-10969-7615-17290-8292v-29c-6511-659-12771-3605-17481-8652l-9981-11904h8630c8663-210 17291 3623 22891 11081zM55965 37441h38697v20242H71078c-5605-6474-13725-9753-21802-9539h-9216L23097 27904h11223c8044-196 16058 3098 21645 9537z"/><path class="lfil0" d="M50969 30695l-1006-1195c-5594-6268-13524-9464-21469-9248H16682L0 8h13823c8409-203 16788 3407 22394 10443h82286v20244H50969z"/></g></g></svg><svg viewBox="0 0 35528 7675" shape-rendering="geometricPrecision" text-rendering="geometricPrecision" image-rendering="optimizeQuality" fill-rule="evenodd" clip-rule="evenodd" id="image-logo--color" xmlns="http://www.w3.org/2000/svg"><defs><style>.mfil0,.mfil1,.mfil2{fill:#fab800;fill-rule:nonzero}.mfil1,.mfil2{fill:#524f4f}.mfil2{fill:#0b3f62}</style></defs><g id="m__x0023_Layer_x0020_1"><g id="m_1888998143856"><path class="mfil0" d="M6414 0L4259 2618v2039L8092 0z"/><path class="mfil1" d="M24794 6819v-450h147v450l422-450h106l-342 369 218 303c11 15 23 31 37 45 13 16 29 29 44 41 16 13 31 23 47 31s30 12 44 12h49v70c-15 5-33 9-52 14-20 5-41 7-61 7-46 0-87-15-121-44-36-30-66-64-92-101l-205-284-94 101v307h-147v-307l-94-101-205 284c-26 37-57 71-92 101-34 29-75 44-121 44-21 0-41-2-61-7s-37-9-52-14v-70h48c15 0 29-4 44-12s31-18 46-31c16-12 31-25 45-41 15-14 27-30 37-45l219-303-342-369h106l422 450zM26346 6369h174v871h-148v-763l-442 763h-174v-871h148v768zM27664 7240h-155l-278-699h-10l-200 504c-16 41-32 76-46 103-14 28-29 50-44 67s-32 28-49 34c-17 7-37 10-59 10-48 0-86-13-113-38l28-93c10 10 24 19 42 28 17 9 34 14 50 14 14 0 27-5 39-14 12-10 23-23 32-38 10-16 18-31 24-48 8-17 14-32 20-44l263-657h105l351 871zM28537 6806c0-81-9-147-26-198-17-50-40-89-68-117s-58-47-92-57c-33-9-66-15-97-15s-64 6-97 15c-34 10-64 29-93 57-28 28-51 67-69 117-18 51-27 117-27 198 0 80 9 146 27 196 18 51 41 89 69 118 29 28 59 47 93 56 33 10 66 15 97 15s64-5 97-15c34-9 64-28 92-56 28-29 51-67 68-118 17-50 26-116 26-196zm165 0c0 61-11 118-31 174-21 55-51 104-90 145-38 42-85 75-140 99s-117 37-185 37c-69 0-132-13-188-38s-104-58-142-99c-39-43-69-91-91-146-21-55-31-113-31-172 0-60 10-118 31-173 22-55 52-104 91-146 38-41 86-75 142-100 56-24 119-37 188-37 68 0 130 13 185 37 55 25 102 59 140 100 39 42 69 91 90 146 20 55 31 113 31 173zM29246 6209c-34-1-67-8-99-18s-59-27-83-50c-23-24-34-56-34-99v-22h164c-1 6-2 12-2 17-1 5-1 10-1 17 0 24 5 43 16 57 10 14 22 24 37 31s30 11 45 13c16 1 29 1 39 1s23 0 38-1c15-2 30-6 45-13 14-7 26-17 37-31s15-33 15-57v-17c-1-5-2-11-3-17h168v22c0 43-11 75-34 99-24 23-52 40-83 50-32 10-65 17-100 18-34 3-61 3-82 3-22 0-50 0-83-3zm290 160h174v871h-148v-763l-444 763h-174v-871h148v768l444-768zM30775 6869c0 47 6 91 19 127 14 37 31 69 53 95 23 26 48 46 77 59 29 14 60 21 92 21 36 0 70-7 102-21 33-13 61-35 86-64 25-30 45-68 59-114 15-47 22-103 22-169 0-65-7-122-22-167-14-46-33-85-58-114-24-29-53-50-86-63s-67-21-103-21c-33 0-65 8-95 22-29 15-55 34-77 60-22 25-39 54-51 88-12 35-18 71-18 110v151zm-148-500h148v142h6c43-108 133-161 271-161 58 0 111 10 160 32 48 21 91 52 126 92s63 89 82 144c19 56 30 118 30 189 0 68-11 130-30 187-19 56-47 104-82 143-35 40-78 70-126 92-49 21-102 32-160 32-27 0-55-3-82-9s-53-15-77-28c-25-12-46-30-65-50-20-21-35-47-47-77h-6v578h-148V6369zM32211 6895c-5-14-14-31-25-49s-26-36-43-54-38-32-63-44c-24-12-53-18-87-18-33 0-64 6-92 19s-51 31-70 53c-19 21-34 46-45 75-10 29-16 60-16 91 0 38 7 69 21 97 13 27 30 50 51 70 21 18 44 34 70 43 25 9 50 13 73 13 22 0 44-4 66-12 23-9 44-19 65-34 20-15 38-32 55-51 16-20 30-41 40-65v-134zm-200-545c84 0 150 12 196 36 47 23 81 54 102 92 22 39 34 83 37 133 4 50 5 101 5 154v475h-140v-85c-34 32-77 58-128 77-52 19-104 29-156 29-50 0-94-9-132-26-38-18-70-41-95-68-26-28-45-60-58-94-12-35-19-71-19-106 0-38 7-75 21-112s35-71 63-101c27-29 61-53 102-71 40-19 86-29 138-29s102 10 148 31c47 20 86 49 116 86v-74c0-96-14-166-43-213-28-46-80-70-156-70-32 0-61 4-85 13-24 8-46 19-65 33-18 15-37 33-53 54-16 22-33 46-49 73l-89-91c16-18 33-35 51-52 19-17 40-33 66-47 27-14 57-26 93-34 36-9 79-13 130-13zM32947 6209c-34-1-66-8-98-18s-59-27-83-50c-23-24-35-56-35-99v-22h165c-1 6-2 12-2 17-1 5-1 10-1 17 0 24 5 43 16 57 9 14 22 24 37 31 14 7 29 11 45 13 15 1 28 1 39 1 10 0 23 0 38-1 15-2 30-6 44-13 15-7 27-17 38-31 10-14 15-33 15-57 0-7 0-12-1-17 0-5-1-11-2-17h168v22c0 43-11 75-35 99-23 23-51 40-83 50s-64 17-99 18c-34 3-61 3-83 3-21 0-49 0-83-3zm291 160h173v871h-147v-763l-443 763h-174v-871h147v768l444-768zM34386 6806c0-81-8-147-26-198-17-50-39-89-68-117-27-28-58-47-91-57-34-9-66-15-97-15-32 0-64 6-97 15-34 10-65 29-93 57-29 28-52 67-70 117-18 51-27 117-27 198 0 80 9 146 27 196 18 51 41 89 70 118 28 28 59 47 93 56 33 10 65 15 97 15 31 0 63-5 97-15 33-9 64-28 91-56 29-29 51-67 68-118 18-50 26-116 26-196zm165 0c0 61-11 118-32 174-20 55-50 104-89 145-38 42-85 75-140 99-54 24-117 37-184 37-70 0-133-13-189-38s-103-58-142-99c-39-43-69-91-90-146-22-55-32-113-32-172 0-60 10-118 32-173 21-55 51-104 90-146 39-41 86-75 142-100 56-24 119-37 189-37 67 0 130 13 184 37 55 25 102 59 140 100 39 42 69 91 89 146 21 55 32 113 32 173zM35380 6369v396h-438v-396h-148v871h148v-417h438v417h148v-871z"/><path class="mfil2" d="M7025 4617c-205-197-308-500-308-911 0-410 104-714 310-910 206-197 516-295 929-295h372c253 0 476 64 671 195 194 131 291 310 291 538 0 65-20 112-60 140-40 29-79 43-116 43h-204c-105 0-186-61-245-183-82-175-217-263-407-263h-295c-242 0-406 52-492 156s-129 297-129 578c0 282 43 475 129 580 86 104 250 156 492 156h330c190 0 325-86 406-262 56-122 135-183 238-183h197c20 0 41 4 64 12s46 28 70 58c23 30 35 68 35 113 0 228-95 407-288 538-192 130-414 195-664 195h-404c-410 0-717-98-922-295zM10689 3112c-113 134-168 333-168 596 0 264 55 462 168 594 112 133 292 199 541 199s430-66 542-199c110-132 166-330 166-594 0-263-56-462-166-596-112-133-293-200-542-200s-429 67-541 200zm-453 1541c-227-199-340-515-340-945 0-432 113-748 340-946 226-199 557-298 994-298s768 99 994 298c226 198 339 514 339 946 0 430-113 746-339 945s-557 298-994 298-768-99-994-298zM13113 4759l421-1597c112-431 478-647 1098-649h828c39 0 71 17 99 48 27 33 40 70 40 111v2071c0 43-14 80-44 110-29 31-65 46-108 46h-316c-44 0-80-15-111-46-30-30-45-67-45-110V2984h-403c-105 0-197 30-276 91s-132 142-159 244l-379 1425c-11 45-36 82-75 111-39 30-80 44-124 44h-338c-38 0-68-14-90-43-16-20-23-42-23-65 1-10 3-21 5-32zM16481 4743V2672c0-44 15-81 46-113 30-30 69-45 114-45h309c42 0 79 15 109 45 30 32 46 69 46 113v748h1139v-748c0-44 16-81 47-113 31-30 68-45 111-45h308c45 0 83 15 114 45 30 32 45 69 45 113v2071c0 43-16 80-48 110-31 31-68 46-111 46h-308c-43 0-80-15-111-44s-47-65-47-109v-855h-1139v855c0 44-16 80-46 109s-67 44-109 44h-309c-43 0-81-15-113-46-32-30-47-67-47-110zM19750 4739V2668c0-42 16-80 46-110 31-30 68-45 112-45h1909c44 0 80 16 111 47 30 31 45 69 45 112v155c0 44-15 81-45 111-31 31-67 46-111 46h-1443v483h1243c43 0 80 15 110 46 31 30 46 68 46 110v158c0 43-15 80-46 111-30 31-67 46-110 46h-1243v490h1440c43 0 79 15 108 45 30 30 44 67 44 110v160c0 43-15 80-46 110-31 31-68 46-111 46h-1901c-44 0-81-15-112-46-30-30-46-68-46-114zM22582 3229v-557c0-43 16-81 47-112 32-31 69-47 112-47h310c43 0 80 16 111 47 30 31 45 69 45 112v557c0 269 133 403 399 403h641v-960c0-43 16-81 47-112s68-47 111-47h308c45 0 83 16 113 47 31 31 46 69 46 112v2071c0 43-16 80-48 110-31 31-68 46-111 46h-308c-43 0-80-15-111-44s-47-65-47-109v-644h-641c-315 0-564-72-748-217-183-145-276-364-276-656zM25753 4743V2672c0-44 15-81 46-113 31-30 69-45 115-45h308c43 0 79 15 110 45 30 32 46 69 46 113v748h1139v-748c0-44 16-81 46-113 32-30 69-45 112-45h308c45 0 83 15 113 45 31 32 46 69 46 113v2071c0 43-16 80-47 110-32 31-69 46-112 46h-308c-43 0-80-15-112-44-30-29-46-65-46-109v-855h-1139v855c0 44-16 80-46 109-31 29-67 44-110 44h-308c-44 0-81-15-113-46-32-30-48-67-48-110zM31564 4746V2672c0-43 15-81 45-112 31-31 68-47 110-47h312c44 0 82 16 112 47s45 69 45 112v2071c0 43-15 80-47 110-30 31-68 46-110 46h-312c-42 0-79-15-110-44-30-29-45-65-45-109zm-1917-318h683c185 0 278-106 278-317s-93-316-278-316h-683v633zm-624 311V2672c0-46 15-84 44-114 30-30 67-45 113-45h312c43 0 79 16 110 47 30 31 45 69 45 112v652h683c260 0 476 69 647 208 170 139 256 332 256 580 0 247-86 440-257 579-172 139-387 208-646 208h-1159c-41 0-76-15-104-47-29-32-44-69-44-113zM33747 1833c0-56 30-85 91-85h136c54 0 92 29 114 84 32 80 103 119 214 118 110 0 181-40 212-118 22-55 61-84 116-84h135c61 0 91 29 91 85 0 152-50 272-152 361-101 89-235 133-402 133s-301-44-403-133-152-209-152-361zm-671 2910V2672c0-46 15-84 46-114s70-44 116-44h302c44 0 82 14 113 44 32 30 47 68 47 110v1665l951-1661c26-44 61-81 105-113 45-30 86-45 124-45h493c43 0 80 15 110 45 30 32 45 69 45 113v2071c0 43-16 80-48 110-32 31-70 46-114 46h-302c-45 0-82-15-114-46-31-30-47-67-47-110V3199l-871 1544c-26 43-63 80-109 110-47 31-92 46-135 46h-554c-43 0-80-15-112-46-30-30-46-67-46-110z"/><path class="mfil0" d="M2983 851L0 4475v2825L5307 851z"/></g></g></svg><svg viewBox="0 0 35528 7675" shape-rendering="geometricPrecision" text-rendering="geometricPrecision" image-rendering="optimizeQuality" fill-rule="evenodd" clip-rule="evenodd" id="image-logo--white" xmlns="http://www.w3.org/2000/svg"><defs><style>.nfil0{fill:#fff;fill-rule:nonzero}</style></defs><g id="n__x0023_Layer_x0020_1"><g id="n_1887762285648"><path class="nfil0" d="M6414 0L4259 2618v2039L8092 0zM24794 6819v-450h147v450l422-450h106l-342 369 218 303c11 15 23 31 37 45 13 16 29 29 44 41 16 13 31 23 47 31s30 12 44 12h49v70c-15 5-33 9-52 14-20 5-41 7-61 7-46 0-87-15-121-44-36-30-66-64-92-101l-205-284-94 101v307h-147v-307l-94-101-205 284c-26 37-57 71-92 101-34 29-75 44-121 44-21 0-41-2-61-7s-37-9-52-14v-70h48c15 0 29-4 44-12s31-18 46-31c16-12 31-25 45-41 15-14 27-30 37-45l219-303-342-369h106l422 450zM26346 6369h174v871h-148v-763l-442 763h-174v-871h148v768zM27664 7240h-155l-278-699h-10l-200 504c-16 41-32 76-46 103-14 28-29 50-44 67s-32 28-49 34c-17 7-37 10-59 10-48 0-86-13-113-38l28-93c10 10 24 19 42 28 17 9 34 14 50 14 14 0 27-5 39-14 12-10 23-23 32-38 10-16 18-31 24-48 8-17 14-32 20-44l263-657h105l351 871zM28537 6806c0-81-9-147-26-198-17-50-40-89-68-117s-58-47-92-57c-33-9-66-15-97-15s-64 6-97 15c-34 10-64 29-93 57-28 28-51 67-69 117-18 51-27 117-27 198 0 80 9 146 27 196 18 51 41 89 69 118 29 28 59 47 93 56 33 10 66 15 97 15s64-5 97-15c34-9 64-28 92-56 28-29 51-67 68-118 17-50 26-116 26-196zm165 0c0 61-11 118-31 174-21 55-51 104-90 145-38 42-85 75-140 99s-117 37-185 37c-69 0-132-13-188-38s-104-58-142-99c-39-43-69-91-91-146-21-55-31-113-31-172 0-60 10-118 31-173 22-55 52-104 91-146 38-41 86-75 142-100 56-24 119-37 188-37 68 0 130 13 185 37 55 25 102 59 140 100 39 42 69 91 90 146 20 55 31 113 31 173zM29246 6209c-34-1-67-8-99-18s-59-27-83-50c-23-24-34-56-34-99v-22h164c-1 6-2 12-2 17-1 5-1 10-1 17 0 24 5 43 16 57 10 14 22 24 37 31s30 11 45 13c16 1 29 1 39 1s23 0 38-1c15-2 30-6 45-13 14-7 26-17 37-31s15-33 15-57v-17c-1-5-2-11-3-17h168v22c0 43-11 75-34 99-24 23-52 40-83 50-32 10-65 17-100 18-34 3-61 3-82 3-22 0-50 0-83-3zm290 160h174v871h-148v-763l-444 763h-174v-871h148v768l444-768zM30775 6869c0 47 6 91 19 127 14 37 31 69 53 95 23 26 48 46 77 59 29 14 60 21 92 21 36 0 70-7 102-21 33-13 61-35 86-64 25-30 45-68 59-114 15-47 22-103 22-169 0-65-7-122-22-167-14-46-33-85-58-114-24-29-53-50-86-63s-67-21-103-21c-33 0-65 8-95 22-29 15-55 34-77 60-22 25-39 54-51 88-12 35-18 71-18 110v151zm-148-500h148v142h6c43-108 133-161 271-161 58 0 111 10 160 32 48 21 91 52 126 92s63 89 82 144c19 56 30 118 30 189 0 68-11 130-30 187-19 56-47 104-82 143-35 40-78 70-126 92-49 21-102 32-160 32-27 0-55-3-82-9s-53-15-77-28c-25-12-46-30-65-50-20-21-35-47-47-77h-6v578h-148V6369zM32211 6895c-5-14-14-31-25-49s-26-36-43-54-38-32-63-44c-24-12-53-18-87-18-33 0-64 6-92 19s-51 31-70 53c-19 21-34 46-45 75-10 29-16 60-16 91 0 38 7 69 21 97 13 27 30 50 51 70 21 18 44 34 70 43 25 9 50 13 73 13 22 0 44-4 66-12 23-9 44-19 65-34 20-15 38-32 55-51 16-20 30-41 40-65v-134zm-200-545c84 0 150 12 196 36 47 23 81 54 102 92 22 39 34 83 37 133 4 50 5 101 5 154v475h-140v-85c-34 32-77 58-128 77-52 19-104 29-156 29-50 0-94-9-132-26-38-18-70-41-95-68-26-28-45-60-58-94-12-35-19-71-19-106 0-38 7-75 21-112s35-71 63-101c27-29 61-53 102-71 40-19 86-29 138-29s102 10 148 31c47 20 86 49 116 86v-74c0-96-14-166-43-213-28-46-80-70-156-70-32 0-61 4-85 13-24 8-46 19-65 33-18 15-37 33-53 54-16 22-33 46-49 73l-89-91c16-18 33-35 51-52 19-17 40-33 66-47 27-14 57-26 93-34 36-9 79-13 130-13zM32947 6209c-34-1-66-8-98-18s-59-27-83-50c-23-24-35-56-35-99v-22h165c-1 6-2 12-2 17-1 5-1 10-1 17 0 24 5 43 16 57 9 14 22 24 37 31 14 7 29 11 45 13 15 1 28 1 39 1 10 0 23 0 38-1 15-2 30-6 44-13 15-7 27-17 38-31 10-14 15-33 15-57 0-7 0-12-1-17 0-5-1-11-2-17h168v22c0 43-11 75-35 99-23 23-51 40-83 50s-64 17-99 18c-34 3-61 3-83 3-21 0-49 0-83-3zm291 160h173v871h-147v-763l-443 763h-174v-871h147v768l444-768zM34386 6806c0-81-8-147-26-198-17-50-39-89-68-117-27-28-58-47-91-57-34-9-66-15-97-15-32 0-64 6-97 15-34 10-65 29-93 57-29 28-52 67-70 117-18 51-27 117-27 198 0 80 9 146 27 196 18 51 41 89 70 118 28 28 59 47 93 56 33 10 65 15 97 15 31 0 63-5 97-15 33-9 64-28 91-56 29-29 51-67 68-118 18-50 26-116 26-196zm165 0c0 61-11 118-32 174-20 55-50 104-89 145-38 42-85 75-140 99-54 24-117 37-184 37-70 0-133-13-189-38s-103-58-142-99c-39-43-69-91-90-146-22-55-32-113-32-172 0-60 10-118 32-173 21-55 51-104 90-146 39-41 86-75 142-100 56-24 119-37 189-37 67 0 130 13 184 37 55 25 102 59 140 100 39 42 69 91 89 146 21 55 32 113 32 173zM35380 6369v396h-438v-396h-148v871h148v-417h438v417h148v-871zM7025 4617c-205-197-308-500-308-911 0-410 104-714 310-910 206-197 516-295 929-295h372c253 0 476 64 671 195 194 131 291 310 291 538 0 65-20 112-60 140-40 29-79 43-116 43h-204c-105 0-186-61-245-183-82-175-217-263-407-263h-295c-242 0-406 52-492 156s-129 297-129 578c0 282 43 475 129 580 86 104 250 156 492 156h330c190 0 325-86 406-262 56-122 135-183 238-183h197c20 0 41 4 64 12s46 28 70 58c23 30 35 68 35 113 0 228-95 407-288 538-192 130-414 195-664 195h-404c-410 0-717-98-922-295zM10689 3112c-113 134-168 333-168 596 0 264 55 462 168 594 112 133 292 199 541 199s430-66 542-199c110-132 166-330 166-594 0-263-56-462-166-596-112-133-293-200-542-200s-429 67-541 200zm-453 1541c-227-199-340-515-340-945 0-432 113-748 340-946 226-199 557-298 994-298s768 99 994 298c226 198 339 514 339 946 0 430-113 746-339 945s-557 298-994 298-768-99-994-298zM13113 4759l421-1597c112-431 478-647 1098-649h828c39 0 71 17 99 48 27 33 40 70 40 111v2071c0 43-14 80-44 110-29 31-65 46-108 46h-316c-44 0-80-15-111-46-30-30-45-67-45-110V2984h-403c-105 0-197 30-276 91s-132 142-159 244l-379 1425c-11 45-36 82-75 111-39 30-80 44-124 44h-338c-38 0-68-14-90-43-16-20-23-42-23-65 1-10 3-21 5-32zM16481 4743V2672c0-44 15-81 46-113 30-30 69-45 114-45h309c42 0 79 15 109 45 30 32 46 69 46 113v748h1139v-748c0-44 16-81 47-113 31-30 68-45 111-45h308c45 0 83 15 114 45 30 32 45 69 45 113v2071c0 43-16 80-48 110-31 31-68 46-111 46h-308c-43 0-80-15-111-44s-47-65-47-109v-855h-1139v855c0 44-16 80-46 109s-67 44-109 44h-309c-43 0-81-15-113-46-32-30-47-67-47-110zM19750 4739V2668c0-42 16-80 46-110 31-30 68-45 112-45h1909c44 0 80 16 111 47 30 31 45 69 45 112v155c0 44-15 81-45 111-31 31-67 46-111 46h-1443v483h1243c43 0 80 15 110 46 31 30 46 68 46 110v158c0 43-15 80-46 111-30 31-67 46-110 46h-1243v490h1440c43 0 79 15 108 45 30 30 44 67 44 110v160c0 43-15 80-46 110-31 31-68 46-111 46h-1901c-44 0-81-15-112-46-30-30-46-68-46-114zM22582 3229v-557c0-43 16-81 47-112 32-31 69-47 112-47h310c43 0 80 16 111 47 30 31 45 69 45 112v557c0 269 133 403 399 403h641v-960c0-43 16-81 47-112s68-47 111-47h308c45 0 83 16 113 47 31 31 46 69 46 112v2071c0 43-16 80-48 110-31 31-68 46-111 46h-308c-43 0-80-15-111-44s-47-65-47-109v-644h-641c-315 0-564-72-748-217-183-145-276-364-276-656zM25753 4743V2672c0-44 15-81 46-113 31-30 69-45 115-45h308c43 0 79 15 110 45 30 32 46 69 46 113v748h1139v-748c0-44 16-81 46-113 32-30 69-45 112-45h308c45 0 83 15 113 45 31 32 46 69 46 113v2071c0 43-16 80-47 110-32 31-69 46-112 46h-308c-43 0-80-15-112-44-30-29-46-65-46-109v-855h-1139v855c0 44-16 80-46 109-31 29-67 44-110 44h-308c-44 0-81-15-113-46-32-30-48-67-48-110zM31564 4746V2672c0-43 15-81 45-112 31-31 68-47 110-47h312c44 0 82 16 112 47s45 69 45 112v2071c0 43-15 80-47 110-30 31-68 46-110 46h-312c-42 0-79-15-110-44-30-29-45-65-45-109zm-1917-318h683c185 0 278-106 278-317s-93-316-278-316h-683v633zm-624 311V2672c0-46 15-84 44-114 30-30 67-45 113-45h312c43 0 79 16 110 47 30 31 45 69 45 112v652h683c260 0 476 69 647 208 170 139 256 332 256 580 0 247-86 440-257 579-172 139-387 208-646 208h-1159c-41 0-76-15-104-47-29-32-44-69-44-113zM33747 1833c0-56 30-85 91-85h136c54 0 92 29 114 84 32 80 103 119 214 118 110 0 181-40 212-118 22-55 61-84 116-84h135c61 0 91 29 91 85 0 152-50 272-152 361-101 89-235 133-402 133s-301-44-403-133-152-209-152-361zm-671 2910V2672c0-46 15-84 46-114s70-44 116-44h302c44 0 82 14 113 44 32 30 47 68 47 110v1665l951-1661c26-44 61-81 105-113 45-30 86-45 124-45h493c43 0 80 15 110 45 30 32 45 69 45 113v2071c0 43-16 80-48 110-32 31-70 46-114 46h-302c-45 0-82-15-114-46-31-30-47-67-47-110V3199l-871 1544c-26 43-63 80-109 110-47 31-92 46-135 46h-554c-43 0-80-15-112-46-30-30-46-67-46-110zM2983 851L0 4475v2825L5307 851z"/></g></g></svg><svg viewBox="0 0 787 924" shape-rendering="geometricPrecision" text-rendering="geometricPrecision" image-rendering="optimizeQuality" fill-rule="evenodd" clip-rule="evenodd" id="image-menu__mark" xmlns="http://www.w3.org/2000/svg"><defs><style>.ofil0{fill:#fbbb05;fill-rule:nonzero}</style></defs><g id="o__x0023_Layer_x0020_1"><path class="ofil0" d="M787 0H266L0 294v630z" id="o_1924118179344"/></g></svg><svg viewBox="0 0 512 512" id="image-play-button" xmlns="http://www.w3.org/2000/svg"><path fill="#fff" d="M256 0C114.833 0 0 114.844 0 256s114.833 256 256 256 256-114.844 256-256S397.167 0 256 0zm101.771 264.969l-149.333 96a10.62 10.62 0 0 1-5.771 1.698c-1.75 0-3.521-.438-5.104-1.302A10.653 10.653 0 0 1 192 352V160c0-3.906 2.125-7.49 5.563-9.365 3.375-1.854 7.604-1.74 10.875.396l149.333 96c3.042 1.958 4.896 5.344 4.896 8.969s-1.854 7.01-4.896 8.969z"/></svg><svg viewBox="0 0 195077 175972" shape-rendering="geometricPrecision" text-rendering="geometricPrecision" image-rendering="optimizeQuality" fill-rule="evenodd" clip-rule="evenodd" id="image-rays" xmlns="http://www.w3.org/2000/svg"><defs><style>.qfil0{fill:#fab800;fill-rule:nonzero}</style></defs><g id="qСлой_x0020_1"><path class="qfil0" d="M154605 0l-51929 63101v49152L195077 0zM71913 20521L0 107883v68089L127942 20521z"/></g></svg><svg viewBox="0 0 195077 175972" shape-rendering="geometricPrecision" text-rendering="geometricPrecision" image-rendering="optimizeQuality" fill-rule="evenodd" clip-rule="evenodd" id="image-rays--white" xmlns="http://www.w3.org/2000/svg"><defs><style>.rfil0{fill:#fff;fill-rule:nonzero}</style></defs><g id="rСлой_x0020_1"><path class="rfil0" d="M154605 0l-51929 63101v49152L195077 0zM71913 20521L0 107883v68089L127942 20521z"/></g></svg></svg>