<svg xmlns="http://www.w3.org/2000/svg" xmlns:xlink="http://www.w3.org/1999/xlink" width="119.98" height="67.49" viewBox="0 0 119.98 67.49">
  <defs>
    <style>
      .a {
        fill: none;
        clip-rule: evenodd;
      }

      .b {
        clip-path: url(#a);
      }

      .c {
        fill: url(#b);
      }

      .d {
        fill: #627175;
        fill-rule: evenodd;
      }

      .e {
        fill: #008ea0;
      }

      .f {
        fill: #fd5e0f;
      }
    </style>
    <clipPath id="a">
      <path class="a" d="M31.81,0Zm0,0C14.24,0,0,15.13,0,33.74S14.24,67.45,31.81,67.45h0Z"/>
    </clipPath>
    <linearGradient id="b" data-name="Безымянный градиент" x1="-2.49" y1="42.42" x2="34.3" y2="25.06" gradientUnits="userSpaceOnUse">
      <stop offset="0" stop-color="#f60"/>
      <stop offset="1" stop-color="#f59f0d"/>
    </linearGradient>
  </defs>
  <title>Ресурс 1</title>
  <g>
    <g class="b">
      <rect class="c" y="0.04" width="31.81" height="67.41"/>
    </g>
    <path class="d" d="M67.3,59.22s-.06,0-.06-.07l0-8.6s0,0,0,0h2.41a2.37,2.37,0,0,1,1.82.7,2.61,2.61,0,0,1,.67,1.9,3.24,3.24,0,0,1-.35,1.54,2.63,2.63,0,0,1-.91,1,2.34,2.34,0,0,1-1.23.35h-1v3.15s0,.07-.06.07Zm51.07,0c-.08,0-.11,0-.11-.1l.09-4.52-2.17,4.62h-1.11s-.06,0-.06-.08V50.6c0-.07,0-.1.08-.1h1.24c.07,0,.11,0,.11.1l-.06,4.83,2.12-4.93h1.13a.09.09,0,0,1,.1.1l0,8.53c0,.06,0,.09-.1.09Zm-7.8,0a.1.1,0,0,1-.11-.1l.09-4.52-2.17,4.62h-1.11s-.06,0-.06-.08V50.6c0-.07,0-.1.08-.1h1.24c.08,0,.11,0,.11.1l-.06,4.83,2.12-4.93h1.13a.09.09,0,0,1,.1.1l0,8.53c0,.06,0,.09-.1.09ZM88.71,50.54s0,0,0,0H87.25s0,0,0,0v7.12H85.74l0-5.84s0,0,0,0h-1.4s0,0,0,0v5.84H82.7V50.56a.05.05,0,0,0-.06-.06H81.26a.05.05,0,0,0-.06.06l0,8.59s0,.07,0,.07h7.44s0,0,0-.07Zm10.45,8.68s0,0,0-.07v-8.6s0,0,.07,0h1.39s.06,0,.06,0V54h1.88v-3.4s0,0,0,0H104s.06,0,.06,0l0,8.6s0,.07-.06.07h-1.41s-.06,0-.06-.07V55.47h-1.88v3.68s0,.07,0,.07Zm-7.18,0s0,0,0-.07v-8.6s0,0,0,0h4s0,0,0,.06V52s0,0,0,0H93.44v2H96s0,0,0,.05l0,1.41s0,0,0,0H93.44v2.19H96s0,0,0,.07v1.43a0,0,0,0,1,0,0Zm-17.87,0s0,0,0-.07v-8.6s0,0,.05,0h4s0,0,0,.06V52a0,0,0,0,1,0,0H75.58v2h2.57s0,0,0,.05v1.41s0,0,0,0H75.58v2.19h2.58s0,0,0,.07v1.43a0,0,0,0,1,0,0ZM69.8,8.8a2.31,2.31,0,0,1-1.22-.34,2.56,2.56,0,0,1-.86-.9,2.47,2.47,0,0,1-.32-1.27V2.47a2.48,2.48,0,0,1,.31-1.24,2.45,2.45,0,0,1,.86-.89A2.25,2.25,0,0,1,69.8,0,2.3,2.3,0,0,1,71,.33a2.53,2.53,0,0,1,.86.89,2.49,2.49,0,0,1,.31,1.25V3a0,0,0,0,1,0,.05H70.77a0,0,0,0,1,0-.05V2.47a1,1,0,0,0-.26-.7.84.84,0,0,0-.66-.3.79.79,0,0,0-.67.3,1.08,1.08,0,0,0-.24.7V6.29a1,1,0,0,0,.27.74.84.84,0,0,0,.64.28A.82.82,0,0,0,70.46,7a1,1,0,0,0,.26-.71V5.73a0,0,0,0,1,0-.05h1.39a0,0,0,0,1,0,.05v.56a2.48,2.48,0,0,1-.33,1.27,2.56,2.56,0,0,1-.86.9A2.31,2.31,0,0,1,69.8,8.8Zm7.87-.13s0,0,0-.06v-7H76A.05.05,0,0,1,76,1.56V.18s0,0,0,0h4.67s.06,0,.06,0V1.56s0,.06,0,.06H79.09v7s0,.06,0,.06Zm8.83,0s0,0,0-.05L87,6.78,85.34.18s0,0,0,0h1.36s.07,0,.07,0l.88,4.22,1-4.22a.05.05,0,0,1,.06,0h1.38s0,0,0,0L88,8.62s0,.05,0,.05Zm15-1.48h-1V1.59s0,0,0,0V.2s0-.05,0-.05h-3.9c-.41,0-1.28,0-1.28,0V6.36a1,1,0,0,1-.27.71l-.11.11h1.73a2.48,2.48,0,0,0,.14-.82V1.63H99V7.18H94.09s-.07,0-.07.06V8.62s0,.05.07.05h7.39s.06,0,.06-.05V7.24S101.52,7.19,101.48,7.19ZM109,8.67c-.07,0-.11,0-.11-.09L109,4.16l-2.13,4.51h-1.08s-.06,0-.06-.07V.23c0-.06,0-.09.08-.09H107c.08,0,.11,0,.11.1L107.08,5,109.16.13h1.1a.09.09,0,0,1,.1.1V8.59c0,.05,0,.08-.1.08ZM120,.07a0,0,0,0,0,0,0h-2.39a2.43,2.43,0,0,0-1.82.7A2.65,2.65,0,0,0,115,2.61a3.2,3.2,0,0,0,.34,1.53,2.72,2.72,0,0,0,.85,1l-1.77,3.6h1.69l1.55-3.2h.76V8.63s0,.06.07.06h1.39a.05.05,0,0,0,.06-.06ZM118.46,4h-.94a.82.82,0,0,1-.69-.38,1.54,1.54,0,0,1-.3-1,1.19,1.19,0,0,1,.26-.79.9.9,0,0,1,.73-.31h.94ZM116.88,49.1s0,0,0,0v-1.3s0,0,0,0h1.3a.05.05,0,0,1,0,0v1.3s0,0,0,0ZM68.76,54.48h1a.85.85,0,0,0,.69-.38,1.59,1.59,0,0,0,.3-1,1.19,1.19,0,0,0-.27-.8.87.87,0,0,0-.72-.31h-1Z"/>
    <path class="d" d="M106.06,62.87h-2.65s0,0,0,0v4.48s0,0,0,0h.73s0,0,0,0V63.68h1.14v3.71s0,0,0,0h.74Zm11.24,4.52.81-4.49s0,0,0,0h.95s0,0,0,0l.78,4.49s0,0,0,0h-.72s0,0,0,0l-.07-.47h-.89l-.07.47s0,0,0,0h-.73S117.3,67.41,117.3,67.39Zm1-1.17h.63l-.27-1.84,0-.24,0,.24Zm-4.1,1.21s0,0,0,0l0-4.49s0,0,0,0h1.26a1.27,1.27,0,0,1,.67.18,1.32,1.32,0,0,1,.46.48,1.18,1.18,0,0,1,.17.64,1.14,1.14,0,0,1-.12.52,1.37,1.37,0,0,1-.31.39,1.4,1.4,0,0,1,.29.44,1.38,1.38,0,0,1-.07,1.22,1.41,1.41,0,0,1-.5.5,1.35,1.35,0,0,1-.69.19Zm.77-.8h.4a.55.55,0,0,0,.41-.18.56.56,0,0,0,.17-.4.57.57,0,0,0-.17-.41.58.58,0,0,0-.41-.17H115Zm0-1.95h.5a.49.49,0,0,0,.37-.16.56.56,0,0,0,.14-.35.53.53,0,0,0-.15-.37.49.49,0,0,0-.36-.15H115Zm-3,2.81a1.22,1.22,0,0,1-.65-.18,1.41,1.41,0,0,1-.46-.48,1.2,1.2,0,0,1-.18-.65V64.1a1.19,1.19,0,0,1,.17-.65,1.25,1.25,0,0,1,.47-.47,1.23,1.23,0,0,1,1.28,0,1.22,1.22,0,0,1,.46.47,1.2,1.2,0,0,1,.18.65v2.08a1.29,1.29,0,0,1-.17.65,1.35,1.35,0,0,1-.47.48A1.19,1.19,0,0,1,112,67.49Zm0-.79a.44.44,0,0,0,.34-.16.53.53,0,0,0,.15-.36V64.1a.52.52,0,0,0-.13-.36.45.45,0,0,0-.35-.15.5.5,0,0,0-.35.14.53.53,0,0,0-.14.37v2.08a.57.57,0,0,0,.14.37A.47.47,0,0,0,112,66.7Zm-4.66.73s0,0,0,0V62.91s0,0,0,0H108s0,0,0,0v1.55l1-1.56a.05.05,0,0,1,0,0h.76s0,0,0,0l-1.13,1.8,1.27,2.7s0,0,0,0h-.8a0,0,0,0,1,0,0l-.89-1.92-.23.36v1.55s0,0,0,0Zm-6.19.06a1.17,1.17,0,0,1-.64-.18,1.27,1.27,0,0,1-.47-.48,1.2,1.2,0,0,1-.18-.65V64.1a1.19,1.19,0,0,1,.17-.65,1.25,1.25,0,0,1,.47-.47,1.19,1.19,0,0,1,.64-.18,1.17,1.17,0,0,1,.64.18,1.22,1.22,0,0,1,.46.47,1.2,1.2,0,0,1,.18.65v2.08a1.29,1.29,0,0,1-.17.65,1.35,1.35,0,0,1-.47.48A1.17,1.17,0,0,1,101.11,67.49Zm0-.79a.44.44,0,0,0,.34-.16.53.53,0,0,0,.15-.36V64.1a.52.52,0,0,0-.13-.36.45.45,0,0,0-.35-.15.5.5,0,0,0-.35.14.53.53,0,0,0-.14.37v2.08a.57.57,0,0,0,.14.37A.47.47,0,0,0,101.11,66.7Zm-5,.73s0,0,0,0V62.9s0,0,0,0h.72s0,0,0,0v1.78h1V62.9a0,0,0,0,1,0,0h.72s0,0,0,0v4.49s0,0,0,0h-.74s0,0,0,0V65.47h-1v1.92s0,0,0,0Zm-2.44.06a1.2,1.2,0,0,1-.65-.18,1.35,1.35,0,0,1-.47-.48,1.39,1.39,0,0,1-.17-.67v-2a1.34,1.34,0,0,1,.17-.65A1.25,1.25,0,0,1,93,63a1.2,1.2,0,0,1,.65-.18,1.22,1.22,0,0,1,.65.18,1.2,1.2,0,0,1,.45.47,1.26,1.26,0,0,1,.17.67v.3s0,0,0,0h-.73s0,0,0,0v-.31a.57.57,0,0,0-.14-.37.47.47,0,0,0-.35-.15.41.41,0,0,0-.36.16.54.54,0,0,0-.13.37v2a.56.56,0,0,0,.14.39.47.47,0,0,0,.35.15.46.46,0,0,0,.35-.17.57.57,0,0,0,.14-.37v-.31s0,0,0,0h.73a0,0,0,0,1,0,0v.3a1.39,1.39,0,0,1-.17.67,1.41,1.41,0,0,1-.46.48A1.22,1.22,0,0,1,93.62,67.49Zm-26.17-.1.81-4.49s0,0,0,0h1s0,0,0,0l.78,4.49s0,0,0,0h-.72s0,0,0,0l-.07-.47h-.89l-.07.47s0,0,0,0h-.72S67.45,67.41,67.45,67.39Zm1-1.17h.63l-.27-1.84,0-.24,0,.24Zm20.1-3.3s0,0,0,0H87.27a1.24,1.24,0,0,0-.94.36,1.37,1.37,0,0,0-.35,1,1.69,1.69,0,0,0,.19.8,1.47,1.47,0,0,0,.43.49l-.91,1.86h.87l.81-1.66h.39v1.63a0,0,0,0,0,0,0h.73a0,0,0,0,0,0,0Zm-.78,2h-.49a.42.42,0,0,1-.36-.2.81.81,0,0,1-.15-.51.62.62,0,0,1,.14-.41.44.44,0,0,1,.37-.16h.49Zm-9.62,1.72h-.53v-3h0v-.74s0,0,0,0H75.52a3.77,3.77,0,0,0-.55,0v3.31a.52.52,0,0,1-.15.38.34.34,0,0,1-.06.06h.93a1.56,1.56,0,0,0,.07-.44V63.7h1.07v3H74.09s0,0,0,0v.74s0,0,0,0h4s0,0,0,0v-.74S78.16,66.67,78.14,66.67Zm4.28.75s0,0,0,0v-4.5s0,0,0,0h2.1a0,0,0,0,1,0,0v.73a0,0,0,0,1,0,0H83.19v1h1.34a0,0,0,0,1,0,0v.74s0,0,0,0H83.19v1.15h1.35s0,0,0,0v.75s0,0,0,0Zm-3.41,0s0,0,0,0V62.93s0,0,0,0h1.26a1.23,1.23,0,0,1,1,.37,1.33,1.33,0,0,1,.35,1,1.73,1.73,0,0,1-.18.81,1.34,1.34,0,0,1-.48.52,1.19,1.19,0,0,1-.64.18h-.5v1.65a0,0,0,0,1,0,0ZM79.77,65h.5a.42.42,0,0,0,.36-.2.77.77,0,0,0,.16-.52.64.64,0,0,0-.14-.42.46.46,0,0,0-.38-.16h-.5Zm-8.88,2.45s0,0,0,0V62.9s0,0,0,0h.72s0,0,0,0v1.78h1V62.9a0,0,0,0,1,0,0h.72s0,0,0,0v4.49s0,0,0,0h-.74s0,0,0,0V65.47h-1v1.92s0,0,0,0Z"/>
    <path class="e" d="M90.24,27.6a3.71,3.71,0,0,1-2-.56,4.22,4.22,0,0,1-1.44-1.47,3.93,3.93,0,0,1-.55-2l0-6.89a3.88,3.88,0,0,1,.53-2,4.16,4.16,0,0,1,1.44-1.45,3.8,3.8,0,0,1,2-.54,3.72,3.72,0,0,1,2,.54,4.11,4.11,0,0,1,1.42,1.45,3.89,3.89,0,0,1,.54,2l0,6.89a3.92,3.92,0,0,1-.54,2A4.11,4.11,0,0,1,92.22,27a3.7,3.7,0,0,1-2,.56m11.84-.21s-.09,0-.09-.07v-12l-2.62,0a.09.09,0,0,1-.1-.1l0-2.26a.07.07,0,0,1,.08-.08H107c.07,0,.1,0,.1.08v2.26c0,.06,0,.1-.08.1h-2.64l0,12c0,.07,0,.1-.08.1Zm13.73.21a3.74,3.74,0,0,1-2-.56,4.4,4.4,0,0,1-1.44-1.47,3.92,3.92,0,0,1-.54-2l0-6.89a4,4,0,0,1,.53-2,4.16,4.16,0,0,1,1.44-1.45,3.83,3.83,0,0,1,2-.54,3.75,3.75,0,0,1,2,.54,4.19,4.19,0,0,1,1.42,1.45,4,4,0,0,1,.53,2l0,6.89a4,4,0,0,1-.53,2A4.28,4.28,0,0,1,117.8,27,3.71,3.71,0,0,1,115.81,27.6Zm0-2.44a1.4,1.4,0,0,0,1.06-.5,1.61,1.61,0,0,0,.45-1.11l0-6.89a1.63,1.63,0,0,0-.42-1.13,1.38,1.38,0,0,0-1.07-.46,1.45,1.45,0,0,0-1.07.45,1.58,1.58,0,0,0-.44,1.14v6.89a1.6,1.6,0,0,0,.44,1.13A1.41,1.41,0,0,0,115.81,25.16Zm-36-10.8a4.09,4.09,0,0,0-1.46-1.46,3.74,3.74,0,0,0-2-.53l-2.46,0-2.47,0a3.73,3.73,0,0,0-2,.53,4.09,4.09,0,0,0-1.46,1.46,3.81,3.81,0,0,0-.55,2v6.28A4.09,4.09,0,0,0,68,24.79a4.15,4.15,0,0,0,1.51,1.52,4.26,4.26,0,0,0,2.14.59h.94s0,0,0,0h2.65s0,0,0,0h.94a4.24,4.24,0,0,0,3.65-2.11,4.09,4.09,0,0,0,.57-2.13V16.38A3.9,3.9,0,0,0,79.84,14.36Zm-9.49,9.55a1.69,1.69,0,0,1-.52-1.25v-6.3a1.56,1.56,0,0,1,.47-1.12,1.5,1.5,0,0,1,1.12-.45l1.08,0,0,9.63h-.86A1.69,1.69,0,0,1,70.35,23.91ZM78,22.66a1.79,1.79,0,0,1-1.78,1.78h-.86l0-9.63,1.07,0a1.49,1.49,0,0,1,1.12.45A1.53,1.53,0,0,1,78,16.36Zm-2.52,12a3.84,3.84,0,0,0-.52-2,4.08,4.08,0,0,0-1.43-1.46,3.88,3.88,0,0,0-2.06-.56H67.55a.07.07,0,0,0-.08.08l0,14.34c0,.07,0,.11.08.11h3.61a4,4,0,0,0,2.12-.58,4.26,4.26,0,0,0,1.53-1.54,5.19,5.19,0,0,0,.56-2.39A4.2,4.2,0,0,0,75,39.12a4.29,4.29,0,0,0-.91-1.35A4,4,0,0,0,75,36.56,4.46,4.46,0,0,0,75.43,34.7Zm-3.06,7.54a1.69,1.69,0,0,1-1.25.54H69.87l0-3.82h1.23a1.72,1.72,0,0,1,1.25.53,1.67,1.67,0,0,1,.52,1.24A1.75,1.75,0,0,1,72.37,42.24ZM72.56,36a1.44,1.44,0,0,1-1.14.49H69.89V33.11h1.53a1.52,1.52,0,0,1,1.11.47A1.55,1.55,0,0,1,73,34.7,1.94,1.94,0,0,1,72.56,36Zm13.08-5.32H83.82l-3.4,8.19.1-8c0-.1-.06-.16-.18-.16h-2c-.08,0-.12.06-.12.16l0,14.25c0,.08,0,.12.1.12h1.77l3.49-7.67-.14,7.51c0,.1.06.16.18.16h2c.11,0,.16-.05.16-.14l0-14.23A.14.14,0,0,0,85.64,30.71Zm34.25,3.79a3.92,3.92,0,0,0-.53-2A4.14,4.14,0,0,0,117.93,31a3.64,3.64,0,0,0-2-.55,3.74,3.74,0,0,0-2,.55,4.08,4.08,0,0,0-1.44,1.45,3.92,3.92,0,0,0-.53,2l0,6.89a3.89,3.89,0,0,0,.54,2A4.22,4.22,0,0,0,114,44.88a3.82,3.82,0,0,0,4,0,4.28,4.28,0,0,0,1.43-1.47,4,4,0,0,0,.53-2Zm-2.87,8A1.41,1.41,0,0,1,116,43a1.43,1.43,0,0,1-1.07-.47,1.6,1.6,0,0,1-.44-1.14V34.5a1.54,1.54,0,0,1,.44-1.14,1.45,1.45,0,0,1,1.07-.45,1.39,1.39,0,0,1,1.07.46,1.63,1.63,0,0,1,.42,1.13l0,6.89A1.63,1.63,0,0,1,117,42.51ZM97.9,42.8V33.09s0,0,0,0V30.81s0-.08-.06-.08h0s0,0,0,0H90.66a.07.07,0,0,0-.06,0h0V41.19a2.42,2.42,0,0,1-.44,1.42,1.41,1.41,0,0,1-.18.17H92.8A5.56,5.56,0,0,0,93,41.19l0-8h2.45v9.64H88.61a.09.09,0,0,0-.1.1v2.28c0,.05,0,.08.1.08h9.22l0,0H99.1c.06,0,.09,0,.09-.08V42.88c0-.05,0-.08-.09-.08ZM102.41,45c-.06,0-.08,0-.08-.1l0-14.13c0-.05,0-.08.07-.08h6.38s.08,0,.08.1V33c0,.06,0,.08-.08.08h-4.07v3.35h2.77a.07.07,0,0,1,.08.08l0,2.24a.07.07,0,0,1-.08.08h-2.79v3.72h4.46s.08,0,.08.1v2.26c0,.06,0,.08-.08.08ZM90.24,25.16a1.38,1.38,0,0,0,1.05-.5,1.58,1.58,0,0,0,.46-1.11l0-6.89a1.6,1.6,0,0,0-.43-1.13,1.36,1.36,0,0,0-1.06-.46,1.44,1.44,0,0,0-1.07.45,1.54,1.54,0,0,0-.45,1.14v6.89a1.57,1.57,0,0,0,.45,1.13A1.39,1.39,0,0,0,90.24,25.16Z"/>
    <polygon class="f" points="59.95 29.91 31.81 0.04 59.95 0.04 59.95 29.91"/>
    <polygon class="e" points="59.95 37.57 31.81 67.45 59.95 67.45 59.95 37.57"/>
  </g>
</svg>
