<svg xmlns="http://www.w3.org/2000/svg" width="130" height="130" viewBox="0 0 130 130"><defs><mask id="412ob" width="2" height="2" x="-1" y="-1"><path fill="#fff" d="M15 4h100v101H15z"/><path d="M64.984 4.78c27.554 0 49.891 22.338 49.891 49.891 0 27.554-22.337 49.891-49.89 49.891-27.555 0-49.891-22.337-49.891-49.89 0-27.554 22.337-49.891 49.89-49.891z"/></mask><filter id="412oa" width="156" height="167" x="-13" y="-24" filterUnits="userSpaceOnUse"><feOffset dy="10" in="SourceGraphic" result="FeOffset1023Out"/><feGaussianBlur in="FeOffset1023Out" result="FeGaussianBlur1024Out" stdDeviation="7.2 7.2"/></filter><mask id="412od" width="2" height="2" x="-1" y="-1"><path fill="#fff" d="M15 4h100v101H15z"/><path d="M64.984 4.78c27.554 0 49.891 22.338 49.891 49.891 0 27.554-22.337 49.891-49.89 49.891-27.555 0-49.891-22.337-49.891-49.89 0-27.554 22.337-49.891 49.89-49.891z"/></mask><filter id="412oc" width="120" height="126" x="5" y="-6" filterUnits="userSpaceOnUse"><feOffset dy="5" in="SourceGraphic" result="FeOffset1034Out"/><feGaussianBlur in="FeOffset1034Out" result="FeGaussianBlur1035Out" stdDeviation="0 0"/></filter><linearGradient id="412oe" x1="64.87" x2="65.09" y1="104.56" y2="4.78" gradientUnits="userSpaceOnUse"><stop offset="0" stop-color="#fe6011"/><stop offset=".99" stop-color="#fe6e25"/><stop offset="1" stop-color="#fe6e25"/></linearGradient></defs><g><g><g filter="url(#412oa)"><path fill="none" d="M64.984 4.78c27.554 0 49.891 22.338 49.891 49.891 0 27.554-22.337 49.891-49.89 49.891-27.555 0-49.891-22.337-49.891-49.89 0-27.554 22.337-49.891 49.89-49.891z" mask="url(&quot;#412ob&quot;)"/><path fill="#fd6113" fill-opacity=".34" d="M64.984 4.78c27.554 0 49.891 22.338 49.891 49.891 0 27.554-22.337 49.891-49.89 49.891-27.555 0-49.891-22.337-49.891-49.89 0-27.554 22.337-49.891 49.89-49.891z"/></g><g filter="url(#412oc)"><path fill="none" d="M64.984 4.78c27.554 0 49.891 22.338 49.891 49.891 0 27.554-22.337 49.891-49.89 49.891-27.555 0-49.891-22.337-49.891-49.89 0-27.554 22.337-49.891 49.89-49.891z" mask="url(&quot;#412od&quot;)"/><path fill="#e64c00" d="M64.984 4.78c27.554 0 49.891 22.338 49.891 49.891 0 27.554-22.337 49.891-49.89 49.891-27.555 0-49.891-22.337-49.891-49.89 0-27.554 22.337-49.891 49.89-49.891z"/></g><path fill="url(#412oe)" d="M64.984 4.78c27.554 0 49.891 22.338 49.891 49.891 0 27.554-22.337 49.891-49.89 49.891-27.555 0-49.891-22.337-49.891-49.89 0-27.554 22.337-49.891 49.89-49.891z"/></g><g><path fill="#fff" d="M81.186 59.28L58.718 72.373V46.186z"/></g></g></svg>