<?xml version="1.0"?>
<svg xmlns="http://www.w3.org/2000/svg" height="512px" viewBox="-81 1 511 511.999" width="512px" class=""><g><path d="m.5 468.414062c0 24.03125 19.550781 43.585938 43.585938 43.585938h262.59375c24.035156 0 43.585937-19.554688 43.585937-43.585938v-323.511718c0-24.035156-19.550781-43.585938-43.585937-43.585938h-70.136719v-16.289062c0-16.480469-13.40625-29.890625-29.886719-29.890625h-6.542969v-47.636719c0-4.140625-3.355469-7.5-7.5-7.5h-34.460937c-4.140625 0-7.5 3.359375-7.5 7.5v47.636719h-6.539063c-16.480469 0-29.890625 13.410156-29.890625 29.890625v16.289062h-70.136718c-24.03125 0-43.585938 19.550782-43.585938 43.585938v30.03125c0 4.144531 3.359375 7.5 7.5 7.5s7.5-3.355469 7.5-7.5v-30.03125c0-15.761719 12.824219-28.585938 28.585938-28.585938h262.59375c15.765624 0 28.585937 12.824219 28.585937 28.585938v224.324218h-319.765625v-164.292968c0-4.140625-3.359375-7.5-7.5-7.5s-7.5 3.359375-7.5 7.5zm165.152344-453.414062h19.460937v40.136719h-19.460937zm-36.429688 86.316406v-16.289062c0-8.210938 6.679688-14.890625 14.890625-14.890625h62.542969c8.210938 0 14.886719 6.679687 14.886719 14.890625v16.289062zm177.457032 395.683594h-262.59375c-15.761719 0-28.585938-12.824219-28.585938-28.585938v-84.1875h319.765625v84.1875c0 15.761719-12.824219 28.585938-28.585937 28.585938zm0 0" data-original="#000000" class="active-path" data-old_color="#c4252b" fill="#c4252b"/><path d="m280.042969 408.878906h-94.121094c-9.945313 0-18.039063 8.089844-18.039063 18.035156v27.398438c0 9.945312 8.09375 18.035156 18.039063 18.035156h94.121094c9.949219 0 18.039062-8.089844 18.039062-18.035156v-27.398438c0-9.945312-8.089843-18.035156-18.039062-18.035156zm3.039062 45.433594c0 1.675781-1.363281 3.039062-3.039062 3.039062h-94.121094c-1.675781 0-3.039063-1.363281-3.039063-3.039062v-27.398438c0-1.671874 1.363282-3.035156 3.039063-3.035156h94.121094c1.675781 0 3.039062 1.363282 3.039062 3.035156zm0 0" data-original="#000000" class="active-path" data-old_color="#c4252b" fill="#c4252b"/><path d="m103.332031 397.921875c-2.339843-.015625-4.6875.511719-6.816406 1.609375l-15.398437 7.960938c-1.496094-.210938-3-.316407-4.496094-.316407-17.792969 0-32.265625 14.472657-32.265625 32.265625 0 17.789063 14.472656 32.265625 32.265625 32.265625 17.789062 0 32.265625-14.476562 32.265625-32.265625 0-1.5-.105469-3.003906-.316407-4.496094l7.957032-15.402343c2.980468-5.765625 1.898437-12.726563-2.691406-17.316407-2.796876-2.796874-6.640626-4.285156-10.503907-4.304687zm-9.269531 32.414063c-1.519531 2.941406-.179688 6.019531-.179688 9.105468 0 9.519532-7.742187 17.265625-17.265624 17.265625-9.519532 0-17.265626-7.746093-17.265626-17.265625 0-9.519531 7.746094-17.265625 17.265626-17.265625 3.167968 0 6.070312 1.386719 9.105468-.179687l17.273438-8.949219c.003906 0-8.921875 17.273437-8.933594 17.289063zm0 0" data-original="#000000" class="active-path" data-old_color="#c4252b" fill="#c4252b"/><path d="m90.222656 274.671875c-.148437 20.933594 7.394532 41.21875 21.246094 57.117187 13.78125 15.820313 32.632812 25.996094 53.085938 28.652344 7.171874.929688 14.460937.933594 21.632812.015625 13.886719-1.757812 27.265625-7.003906 38.683594-15.171875 3.371094-2.410156 4.148437-7.09375 1.738281-10.464844-2.410156-3.367187-7.09375-4.144531-10.460937-1.734374-9.40625 6.722656-20.417969 11.042968-31.851563 12.492187-5.921875.757813-11.917969.753906-17.8125-.011719-16.8125-2.183594-32.332031-10.574218-43.707031-23.628906-11.445313-13.136719-17.679688-29.886719-17.554688-47.160156.207032-29.707032 8.199219-42.765625 14.617188-53.257813 4.621094-7.550781 9.050781-14.792969 8.371094-25.152343 7.683593 4.511718 10.265624 10.449218 11.097656 13.335937 1.945312 6.726563 11.59375 7.183594 14.175781.695313 7.652344-19.226563 18.015625-29.773438 25.402344-35.246094 5.320312 28.820312 27.644531 48.089844 28.703125 48.992187 3.941406 3.34375 10.160156 1.671875 11.910156-3.167969.980469-2.714843 2.402344-4.640624 3.9375-6.007812 1.925781 10.03125 6.363281 17.53125 10.6875 24.835938 5.875 9.925781 11.421875 19.296874 11.421875 36.171874 0 13.511719-3.863281 26.644532-11.175781 37.972657-2.246094 3.484375-1.242188 8.125 2.238281 10.371093 3.480469 2.246094 8.121094 1.246094 10.367187-2.234374 8.878907-13.761719 13.570313-29.707032 13.570313-46.105469 0-20.984375-7.179687-33.113281-13.515625-43.816407-4.984375-8.417968-9.289062-15.691406-9.566406-26.714843-.132813-5.292969-5.078125-9.308594-10.285156-8.355469-2.746094.507812-10.242188 2.464844-16.160157 9.15625-7.082031-8.160156-17.683593-23.367188-18.242187-41.789062-.1875-6.109376-6.734375-10.207032-12.308594-7.671876-3.472656 1.582032-10.460938 5.359376-18.21875 12.910157-6.296875 6.132812-11.796875 13.4375-16.429688 21.824219-4.875-5.449219-12.480468-10.839844-24.296874-13.785157-6.71875-1.675781-12.691407 5.113281-10.226563 11.554688 4.089844 10.765625 1.476563 15.035156-4.25 24.398437-7 11.4375-16.585937 27.105469-16.824219 60.980469zm0 0" data-original="#000000" class="active-path" data-old_color="#c4252b" fill="#c4252b"/><path d="m133.765625 262.035156c-4.140625 0-7.5 3.359375-7.5 7.5v7.535156c0 4.140626 3.359375 7.5 7.5 7.5s7.5-3.359374 7.5-7.5v-7.535156c0-4.140625-3.359375-7.5-7.5-7.5zm0 0" data-original="#000000" class="active-path" data-old_color="#c4252b" fill="#c4252b"/><path d="m217 262.035156c-4.140625 0-7.5 3.359375-7.5 7.5v7.535156c0 4.140626 3.359375 7.5 7.5 7.5 4.144531 0 7.5-3.359374 7.5-7.5v-7.535156c0-4.140625-3.355469-7.5-7.5-7.5zm0 0" data-original="#000000" class="active-path" data-old_color="#c4252b" fill="#c4252b"/><path d="m180.007812 271.609375c-1.097656 1.257813-2.785156 1.980469-4.625 1.980469-1.839843 0-3.523437-.722656-4.625-1.980469-2.726562-3.121094-7.464843-3.4375-10.582031-.710937-3.121093 2.726562-3.4375 7.464843-.710937 10.582031 3.949218 4.519531 9.75 7.109375 15.917968 7.109375 6.167969 0 11.96875-2.59375 15.917969-7.109375 2.726563-3.121094 2.410157-7.859375-.710937-10.582031-3.117188-2.726563-7.855469-2.410157-10.582032.710937zm0 0" data-original="#000000" class="active-path" data-old_color="#c4252b" fill="#c4252b"/></g> </svg>
