<?xml version="1.0"?>
<svg xmlns="http://www.w3.org/2000/svg" xmlns:xlink="http://www.w3.org/1999/xlink" version="1.1" id="Capa_1" x="0px" y="0px" viewBox="0 0 512 512" style="enable-background:new 0 0 512 512;" xml:space="preserve" width="512px" height="512px"><g><g>
	<g>
		<path d="M492.887,0H19.113c-5.523,0-10,4.477-10,10v492c0,5.522,4.477,10,10,10h473.774c5.523,0,10-4.478,10-10V10    C502.887,4.477,498.41,0,492.887,0z M482.887,492H29.113V20h453.774V492z" data-original="#000000" class="active-path" data-old_color="#c4252b" fill="#c4252b"/>
	</g>
</g><g>
	<g>
		<path d="M255.998,35.824c-121.365,0-220.102,98.77-220.102,220.174c0,121.406,98.738,220.178,220.102,220.178    c121.367,0,220.105-98.772,220.105-220.178C476.103,134.594,377.365,35.824,255.998,35.824z M255.998,456.176    c-110.337,0-200.102-89.8-200.102-200.178c0-110.376,89.766-200.174,200.102-200.174c110.338,0,200.106,89.798,200.106,200.174    C456.104,366.376,366.336,456.176,255.998,456.176z" data-original="#000000" class="active-path" data-old_color="#c4252b" fill="#c4252b"/>
	</g>
</g><g>
	<g>
		<g>
			<path d="M326.769,113.499c5.522,0,10-4.478,10-10c0-5.522-4.478-10-10-10h-0.01c-5.523,0-9.995,4.478-9.995,10     C316.764,109.021,321.246,113.499,326.769,113.499z" data-original="#000000" class="active-path" data-old_color="#c4252b" fill="#c4252b"/>
			<path d="M421.843,191.115c-2.013-5.144-7.814-7.679-12.957-5.669c-5.143,2.013-7.68,7.813-5.668,12.956     c7.176,18.339,10.814,37.717,10.814,57.597c0,87.171-70.893,158.089-158.033,158.089c-87.136,0-158.027-70.918-158.027-158.089     c0-87.168,70.89-158.085,158.027-158.085c10.765,0,21.52,1.087,31.965,3.233c5.409,1.108,10.696-2.373,11.807-7.784     c1.111-5.411-2.374-10.697-7.784-11.808c-11.766-2.416-23.874-3.642-35.989-3.642c-98.164,0-178.027,79.889-178.027,178.085     c0,98.198,79.862,178.089,178.027,178.089c98.167,0,178.032-79.891,178.034-178.088     C434.032,233.615,429.931,211.785,421.843,191.115z" data-original="#000000" class="active-path" data-old_color="#c4252b" fill="#c4252b"/>
		</g>
	</g>
</g><g>
	<g>
		<path d="M348.021,198.387c-11.387,0-24.58,2.275-37.394,6.06c7.902-13.669,13.126-27.966,13.126-40.494    c0-13.074-6.038-31.169-34.8-43.121c-17.886-7.433-37.505-9.416-46.277-9.416c-20.197,0-44.273,9.114-44.273,52.537    c0,11.391,2.275,24.589,6.059,37.407c-13.664-7.904-27.955-13.128-40.478-13.128c-13.083,0-31.182,5.995-43.104,34.558    c-6.953,16.655-9.419,35.482-9.419,46.544c0,20.2,9.112,44.279,52.523,44.279c11.388,0,24.582-2.275,37.397-6.06    c-7.904,13.671-13.129,27.969-13.129,40.499c0,13.074,6.038,31.169,34.801,43.119c17.885,7.432,37.504,9.414,46.277,9.414    c20.195,0,44.268-9.114,44.268-52.533c0-11.342-2.335-24.594-6.21-37.498c13.711,7.954,28.063,13.218,40.635,13.218    c13.072,0,31.162-6.04,43.108-34.813c7.428-17.89,9.41-37.514,9.41-46.289C400.54,222.469,391.428,198.387,348.021,198.387z     M242.676,131.415c15.654,0,61.078,8.011,61.078,32.537c0,16.254-14.561,40.138-30.276,56.889c-1.16,0.75-2.279,1.509-3.354,2.278    c-4.335-1.869-9.109-2.906-14.122-2.906c-7.13,0-13.779,2.097-19.364,5.706c-0.105-0.103-0.211-0.206-0.316-0.309    c-9.954-16.434-17.919-42.783-17.919-61.658C218.403,133.93,230.932,131.415,242.676,131.415z M271.781,256.002    c0,8.706-7.079,15.788-15.78,15.788c-8.701,0-15.78-7.082-15.78-15.788s7.079-15.789,15.78-15.789    C264.702,240.213,271.781,247.296,271.781,256.002z M163.983,293.612c-30.01,0-32.523-12.532-32.523-24.279    c0-16.314,7.708-61.102,32.523-61.102c16.245,0,40.12,14.566,56.866,30.286c0.75,1.161,1.51,2.281,2.279,3.357    c-1.87,4.336-2.907,9.113-2.907,14.128c0,7.132,2.097,13.784,5.707,19.371c-0.103,0.105-0.207,0.211-0.31,0.317    C209.192,285.646,182.852,293.612,163.983,293.612z M269.329,380.585c-15.654,0-61.078-8.009-61.078-32.533    c0-16.253,14.562-40.139,30.277-56.892c1.159-0.749,2.277-1.508,3.351-2.276c4.335,1.87,9.109,2.906,14.122,2.906    c7.085,0,13.695-2.07,19.258-5.637c10.159,16.575,18.337,43.167,18.337,61.899C293.596,378.071,281.07,380.585,269.329,380.585z     M348.021,303.772c-16.478,0-40.802-14.984-57.577-30.958c-0.552-0.838-1.11-1.653-1.673-2.446c1.936-4.4,3.011-9.26,3.011-14.367    c0-7.133-2.097-13.784-5.706-19.371c0.105-0.107,0.21-0.214,0.314-0.322c16.428-9.955,42.765-17.922,61.631-17.922    c30.006,0,32.519,12.535,32.519,24.284C380.54,258.331,372.534,303.772,348.021,303.772z" data-original="#000000" class="active-path" data-old_color="#c4252b" fill="#c4252b"/>
	</g>
</g><g>
	<g>
		<path d="M437.989,29.74c-16.759,0-30.393,13.637-30.393,30.399c0,16.762,13.634,30.4,30.393,30.4    c16.758,0,30.392-13.638,30.392-30.4C468.381,43.377,454.747,29.74,437.989,29.74z M437.989,70.538    c-5.731,0-10.393-4.666-10.393-10.4s4.662-10.399,10.393-10.399c5.73,0,10.392,4.665,10.392,10.399S443.719,70.538,437.989,70.538    z" data-original="#000000" class="active-path" data-old_color="#c4252b" fill="#c4252b"/>
	</g>
</g><g>
	<g>
		<path d="M74.011,29.74c-16.758,0-30.392,13.637-30.392,30.399c0,16.762,13.634,30.4,30.392,30.4    c16.759,0,30.393-13.638,30.393-30.4C104.404,43.377,90.77,29.74,74.011,29.74z M74.011,70.538c-5.73,0-10.392-4.666-10.392-10.4    s4.662-10.399,10.392-10.399c5.731,0,10.393,4.665,10.393,10.399S79.742,70.538,74.011,70.538z" data-original="#000000" class="active-path" data-old_color="#c4252b" fill="#c4252b"/>
	</g>
</g><g>
	<g>
		<path d="M437.989,421.462c-16.759,0-30.393,13.638-30.393,30.4c0,16.762,13.634,30.399,30.393,30.399    c16.758,0,30.392-13.637,30.392-30.399C468.381,435.1,454.747,421.462,437.989,421.462z M437.989,462.26    c-5.731,0-10.393-4.665-10.393-10.399s4.662-10.4,10.393-10.4c5.73,0,10.392,4.666,10.392,10.4    C448.381,457.595,443.719,462.26,437.989,462.26z" data-original="#000000" class="active-path" data-old_color="#c4252b" fill="#c4252b"/>
	</g>
</g><g>
	<g>
		<path d="M74.011,421.462c-16.758,0-30.392,13.638-30.392,30.4c0,16.762,13.634,30.399,30.392,30.399    c16.759,0,30.393-13.637,30.393-30.399C104.404,435.1,90.77,421.462,74.011,421.462z M74.011,462.26    c-5.73,0-10.392-4.665-10.392-10.399s4.662-10.4,10.392-10.4c5.731,0,10.393,4.666,10.393,10.4    C84.404,457.595,79.742,462.26,74.011,462.26z" data-original="#000000" class="active-path" data-old_color="#c4252b" fill="#c4252b"/>
	</g>
</g></g> </svg>
