<svg xmlns="http://www.w3.org/2000/svg" xmlns:xlink="http://www.w3.org/1999/xlink" width="60" height="43" viewBox="0 0 60 43"><defs><path id="hb70a" d="M1143 932h-25a4 4 0 0 1-4-4c0-.733.211-1.41.555-2H1114a4 4 0 0 1-4-4h-8a4 4 0 0 1-4-4v-28a1 1 0 0 1 2 0v28a2 2 0 0 0 2 2h32a2 2 0 0 0 2-2 1 1 0 1 1 2 0 4 4 0 0 1-4 4h-22a2 2 0 0 0 2 2h16v2h-12a2 2 0 0 0 0 4h25c7.18 0 13-5.821 13-13 0-7.18-5.82-13-13-13h-15a2 2 0 0 0 0 4h10a7 7 0 0 0 7 7 1 1 0 1 1 0 2c-4.283 0-7.868-2.993-8.777-7H1128a4 4 0 1 1 0-8h8v-9a2 2 0 0 0-2-2h-29a1 1 0 0 1 0-2h29a4 4 0 0 1 4 4v9h5c8.284 0 15 6.715 15 15 0 8.283-6.716 15-15 15zm-38-37h26a1 1 0 0 1 0 2h-26a1 1 0 0 1 0-2z"/><path id="hb70b" d="M1105 901h14a1 1 0 0 1 0 1.999h-14a1 1 0 1 1 0-2zm0 13h26a1 1 0 1 1 0 2h-26a1 1 0 1 1 0-2z"/></defs><g><g transform="translate(-1098 -889)"><g><use fill="#2f3238" xlink:href="#hb70a"/></g><g><use fill="#26e6e6" xlink:href="#hb70b"/></g></g></g></svg>