<svg xmlns="http://www.w3.org/2000/svg" xmlns:xlink="http://www.w3.org/1999/xlink" width="56" height="56" viewBox="0 0 56 56"><defs><path id="dm4ta" d="M1063.375 4490a1 1 0 0 1-1 1H1040a1 1 0 0 1-1-1v-22.375a1 1 0 1 1 2 0V4489h20.09c-2.086-8.092-7.688-14.759-15.09-18.278 0 0-.379-.164-.548-.314a.982.982 0 0 1-.452-.815 1 1 0 0 1 1-1c.179 0 .337.06.482.142.004 0 .008-.005.012-.003 8.574 3.934 14.978 11.783 16.903 21.268z"/><path id="dm4tb" d="M1059.19 4502.313c-2.822 11.303-13.013 19.687-25.19 19.687-14.36 0-26-11.641-26-26 0-14.022 11.108-25.42 25-25.95v.012c.16 0 .312.038.446.105a1 1 0 0 1 1.554.833v24h24a1 1 0 0 1 0 2h-24.605l-11.718 11.717a.986.986 0 1 1-1.395-1.394l11.718-11.718v-23.543c-.015 0-.027-.007-.041-.008-12.768.549-22.96 11.042-22.96 23.946 0 13.255 10.746 24 24 24 11.178 0 20.532-7.656 23.198-18 0 0 .027-.128.07-.235a.986.986 0 0 1 .952-.765 1 1 0 0 1 1 1c0 .103 0 .198-.028.313z"/></defs><g><g transform="translate(-1008 -4466)"><g><use fill="#26e6e6" xlink:href="#dm4ta"/></g><g><use fill="#2f3238" xlink:href="#dm4tb"/></g></g></g></svg>