<svg xmlns="http://www.w3.org/2000/svg" xmlns:xlink="http://www.w3.org/1999/xlink" width="60" height="60" viewBox="0 0 60 60"><defs><path id="dim3a" d="M369 4287a1 1 0 0 1 0 2h-43.23c4.847 8.368 13.883 13.994 24.23 13.994 7.616 0 14.521-3.048 19.569-7.994h-33.57a1 1 0 0 1 0-2h35.423A28.004 28.004 0 0 0 378 4274.92c0-14.488-10.948-26.405-25-27.907v-.009c-.552 0-1-.449-1-1.003 0-.553.448-1.002 1-1.002v-.005c15.16 1.51 27 14.33 27 29.926 0 16.612-13.432 30.079-30 30.079-16.569 0-30-13.467-30-30.079 0-15.596 11.84-28.417 27-29.926v.005a1.001 1.001 0 1 1 0 2.005v.009c-14.052 1.502-25 13.42-25 27.907 0 4.324.975 8.42 2.717 12.078zm4-11a1 1 0 0 1-1-1c0-12.151-9.85-22-22-22s-22 9.849-22 22a1 1 0 1 1-2 0c0-13.256 10.745-24 24-24s24 10.744 24 24a1 1 0 0 1-1 1z"/><path id="dim3b" d="M350 4259a1 1 0 0 1 1 1v22a1 1 0 0 1-2 0v-22a1 1 0 0 1 1-1z"/></defs><g><g transform="translate(-320 -4245)"><g><use fill="#2f3238" xlink:href="#dim3a"/></g><g><use fill="#26e6e6" xlink:href="#dim3b"/></g></g></g></svg>