<svg xmlns="http://www.w3.org/2000/svg" xmlns:xlink="http://www.w3.org/1999/xlink" width="118" height="38" viewBox="0 0 118 38"><defs><path id="p8ira" d="M1163.509 7935.024c.084.243-.355 1.153-.355 1.153s-.958 2.538-4.725 2.514c-.552-.004-4.31-.416-2.634-5.34.247-.725 1.345-4.578 2.61-8.76-.276.012-.54.02-.788.02l-3.55.001c.3 2.658.457 3.148.404 6.06-.028 1.54-.38 9.457-2.215 12.791-1.543 2.805-3.035 3.267-4.026 3.475-.944.198-2.934-.018-3.682-1.42-.936-1.752.06-4.941.06-4.941l2.156-6.438c-1.15 2.2-2.86 4.488-4.953 4.347-2.162-.145-2.215-1.793-2.215-1.793s-1.247 1.9-3.732 1.793c-3.157-.136-3.38-2.278-3.38-2.278s-2.312 2.332-4.188 2.278c-.793-.023-1.716-.018-2.394-.875-.714-.901-.487-2.12-.087-3.294.646-1.897.98-2.918 1.235-3.877-.103.105-.85 1.348-2.436 1.492-.353.032-.789.04-1.09-.006-.765 3.265-2.27 4.982-3.398 5.721-2.506 1.641-6.566 1.41-8.55-.926-1.548-1.821-2.101-4.67-.997-8.618.958-3.425 2.937-5.605 3.88-6.53 2.485-2.433 4.85-3.023 7.273-2.732 1.544.186 4.33 1.273 4.602 3.897.491-.369 1.108-.764 1.862-1.128 3.352-1.615 6.872-.793 11.254-.23 4.217.542 7.721.614 11.43.344.214-.611.418-1.168.418-1.168s1.617-5.165 2.48-7.9c.45-1.42.902-2.215 1.584-2.635 1.085-.668 2.84-.506 3.483.378.52.714.983 2.647-.613 5.43-.829 1.445-2.336 4.131-2.863 4.727l-.388.75a150.883 150.883 0 0 0 4.644-.666c1.19-3.762 2.34-7.065 2.926-7.77.48-.578 1.848-1.307 2.758-1.75.5-.245.718.134.718.134l-2.674 8.743c4.695-.882 6.984-1.617 6.984-1.617s-.957 2.538-2.633 4.154c-.669.644-3.14 1.284-5.683 1.68-1.472 4.39-2.284 6.958-2.529 7.772-.419 1.391-1.845 4.872-.169 4.883.945.007 1.103-1.63 1.437-1.845.718-.462 2.51-.693 2.749 0zm-8.888-14.495c.219-.328 1.257-2.106 1.83-2.976 1.596-2.425 2.194-5.02 1.915-5.77-.279-.748-.904-.045-1.165.773-.6 1.881-2.043 6.407-2.58 7.973zm-32.181 7.624c-.37-.374-1.454-.35-1.258.788.24 1.385 1.377 1.712 1.617 1.712 0 0 .533-1.596-.36-2.5zm18.004 1.323s.25-1.462-1.108-1.64c-.979-.13-1.896.893-2.784 2.861-.918 2.034-1.182 3.403-1.126 4.168.12 1.658 1.639 1.741 2.533 1.177.562-.355 1.327-1.338 1.727-2.676.495-1.663.852-3.177.758-3.89zm7.343 1.61l2.174-6.487c-3.678-.038-5.738-.18-9.554-.68-6.593-.868-11.508-1.402-13.408.691-1.252 1.38-2.065 1.122-2.347.839-.096-.096-.047-.31-.047-.31l.081-.335c.485-2.343-1.402-3.753-3.456-3.296-1.734.385-3.279 1.457-4.875 4.74-1.596 3.282-1.86 7.158-.818 8.64 1.343 1.91 3.62 2.056 5.238.107.957-1.154 1.466-2.274 1.665-3.208-.771-.166-1.896-1.115-2.195-2.096-.298-.975-.14-1.942.578-2.404.564-.361 2.114-.57 2.754.885.559 1.27.108 2.593.108 2.593.155.12 1.222.257 1.986-.377 1.033-.856 1.763-3.002 2.865-3.605.676-.37 3.113-.232 3.113-.232s-1.058 3.478-1.677 5.37c-.396 1.21-1.31 3.573-.837 4.05 1.097 1.106 3.009-.95 3.009-.95s-.07-3.69 3.082-6.65c1.31-1.232 2.674-1.91 4.35-1.82 1.676.09 1.666 1.427 1.666 1.427s.643-.974.958-1.195c.677-.474 2.873-.232 2.873-.232s-1.927 6.002-2.268 7.007c-.203.6-.847 2.673.233 2.662 1.986-.02 3.67-2.778 4.75-5.134zm5.312-5.687l-5.332 16.351s-.406 1.364-.187 1.96c.169.457.487.66 1.164.396.731-.284 1.71-.957 2.893-3.827 1.158-2.81 2.27-9.413 1.462-14.88zm64.607-.946l-1.107 3.496c1.676-2.539 5.993-2.315 5.843 0-.24 3.692-2.73 4.615-4.167 5.307-1.619.78-2.46.627-3.016.693.097.023 1.795.049 2.394.461 1.676 1.154.717 2.539 1.676 2.539.48 0 .725-.69.883-1.154.315-.923 1.033-.923 1.033-.923s1.122-.152 1.466-.087c.94.178.494.829.33 1.29-.072.202-.531 1.097-.739 1.354-.818 1.02-2.514 1.161-3.548 1.135-1.588-.04-2.298-.923-2.298-2.308 0-1.631-1.915-1.615-1.915-1.615l-1.182 3.23s-.15.717-.63.717c-.658 0-.985-.042-2.182-.042-.718 0-.54-.674-.54-.674l1.31-3.637s-2.373 4.353-4.935 4.324c-.793-.009-1.715-.017-2.394-.874-.714-.902-.487-2.121-.087-3.295.646-1.896 1.508-4.003 1.3-3.903-1.515.732-2.538.083-2.742-.023-.681.913-1.342 1.342-2.286 1.73-1.547 7.284-7.477 7.169-9.278 5.216-1.089-1.18-1.252-2.968-.73-4.98-.26.198-.765.387-1.244.395-.48.007-.935-.166-.978-.173-.258 1.03-.666 2.354-1.177 3.143-2.157 3.326-5.028 3-6.188 2.077-.665-.53-1.184-1.128-1.663-2.051-.24.461-.769 1.35-1.915 2.077-1.388.88-4.632 1.277-6.616-1.059-1.548-1.82-2.101-4.67-.997-8.618.958-3.425 2.916-5.625 3.88-6.53 2.265-2.123 5.138-3.098 7.244-3.001 4.118.189 5.077 2.272 5.158 3.78.45-.318.988-.648 1.627-.956 3.352-1.616 6.632-1.025 11.014-.462 6.057.778 10.815.752 16.7.02.21-.596.406-1.129.406-1.129s1.616-5.165 2.48-7.9c.449-1.42.902-2.215 1.584-2.635 1.085-.668 2.84-.506 3.483.378.519.714 1.135 2.25-.613 5.43-.803 1.459-2.336 4.132-2.863 4.727l-.379.54c6.87-1.116 8.892-2.2 8.892-2.2s-.957 2.664-2.633 4.28c-.919.884-5.097 1.67-7.661 1.89zm1.032-4.536c.22-.329 1.258-2.107 1.83-2.977 1.597-2.425 2.195-5.02 1.916-5.77-.28-.748-.904-.045-1.165.773-.6 1.881-2.044 6.408-2.58 7.974zm-37.428 8.058c-.02-.815-.839-1.341-1.437-.231-.668 1.242 0 3.693 0 3.693s1.49-1.25 1.437-3.462zm16.71.204c-.72-.692-2.693-.461-4.071 2.77-.765 1.793-.985 3.358-.718 4.384.479 1.846 3.83 1.846 5.086-2.538.011-.074.048-.223.062-.297-.04 0-3.233-.165-2.993-1.78.107-.722 1.436-.461 2.633-.461.29 0 .55-.004.79-.01.042-.724-.119-1.42-.79-2.068zm5.132-.556c-.211-.581-.967-.578-1.202-.115-.549 1.081.564 1.667.532 1.692.489-.308.835-1.125.67-1.577zm10.935-3.098c-4.651.027-10.726.039-15.777-.934-6.953-1.34-9.804-1.167-11.972.922-2.155 2.077-2.766.922-2.7.63.154-.682.272-1.62.203-2.184-.152-1.242-.91-2.1-2.612-2.138-2.155-.047-4.6 1.076-6.196 4.359-1.596 3.282-2.32 7.78-1.146 9.256 1.488 1.873 4.22.1 4.273-1.012-.175-.511-1.965-5.916.971-7.48 1.45-.773 5.77.416.981 7.108-.239 1.615 3.353 5.307 5.696 1.127.479-.854.613-1.92.672-2.9-.844-1.114-1.37-2.459-.931-3.531.36-.879 1.349-.964 1.74-.827.993.346 1.194 1.622 1 3.841.213.323.508.383.871.417 1.152.108 1.536-.479 1.66-.602 1.249-2.72 3.768-4.252 5.686-4.238 3.02.02 3.776 1.907 3.865 3.789.771-.053 1.129-.188 1.27-.341-.464-.404-.723-1.173-.778-1.472-.165-.894.195-1.506.758-1.788.519-.26 1.55-.375 2.105.51.745 1.187-.52 2.603-.52 2.603.201.195.79.349 1.518-.307.714-.642 1.515-1.87 1.676-2.077.718-.922 3.335-.632 3.335-.632s-.944 2.895-1.563 4.787c-.396 1.211-1.506 4.04-1.197 4.614.562 1.045 2.257-.78 2.257-.78 1.702-1.636 3.41-5.967 3.41-5.967s.79-2.614 1.445-4.753zm1.793 5.5l-.937 2.77s2.756.417 4.29-2.538c1.915-3.693-2.155-2.77-3.353-.231z"/></defs><g><g transform="translate(-1110 -7909)"><use fill="#fff" xlink:href="#p8ira"/></g></g></svg>