<svg xmlns="http://www.w3.org/2000/svg" xmlns:xlink="http://www.w3.org/1999/xlink" width="60" height="46" viewBox="0 0 60 46"><defs><path id="k174a" d="M497 934.999h-52a4 4 0 0 1-4-4v-35a1 1 0 0 1 2 0v35a2 2 0 0 0 2 2h52a2 2 0 0 0 2-2v-38a2 2 0 0 0-2-2h-55a1 1 0 0 1 0-2h55a4 4 0 0 1 4 4v38a4 4 0 0 1-4 4z"/><path id="k174b" d="M494.692 895.276a1.002 1.002 0 0 1 0 1.417l-22.838 22.838a1.005 1.005 0 0 1-.854.454.998.998 0 0 1-.854-.455l-22.838-22.837a1.002 1.002 0 0 1 1.417-1.417L471 917.551l22.275-22.275a1.003 1.003 0 0 1 1.417 0z"/></defs><g><g transform="translate(-441 -889)"><g><use fill="#2f3238" xlink:href="#k174a"/></g><g><use fill="#26e6e6" xlink:href="#k174b"/></g></g></g></svg>