<svg xmlns="http://www.w3.org/2000/svg" xmlns:xlink="http://www.w3.org/1999/xlink" width="60" height="60" viewBox="0 0 60 60"><defs><path id="866ea" d="M809.71 901.288c.409.409.409 1.07 0 1.478l-17.91 17.911a1.045 1.045 0 0 1-1.478-1.477l17.91-17.912a1.045 1.045 0 0 1 1.479 0z"/><path id="866eb" d="M827.796 894.53l-36.265 36.266a3.994 3.994 0 0 1-2.114 1.106.98.98 0 0 1-.417.097h-9a.996.996 0 0 1-.922-.61.997.997 0 0 1-.078-.39v-8.684V922c0-.076.027-.144.044-.216a3.979 3.979 0 0 1 1.128-2.346l36.266-36.265a4.016 4.016 0 0 1 5.679 0l5.68 5.679a4.016 4.016 0 0 1 0 5.679zm-1.382-4.285l-5.691-5.692a2.012 2.012 0 0 0-2.846 0l-6.492 6.492c.14.05.27.132.382.244l3.91 3.91a1.044 1.044 0 1 1-1.477 1.478l-3.91-3.91a1.04 1.04 0 0 1-.244-.382l-28.091 28.091 8.537 8.537 35.922-35.922a2.012 2.012 0 0 0 0-2.846zM781 929.999h7.522L781 922.477zm-10 11a1 1 0 1 1-2 0v-58a1 1 0 0 1 1-1h30a1 1 0 0 1 0 2h-29zm5 1a1 1 0 0 1 0-2h51v-29a1 1 0 0 1 2 0v30a1 1 0 0 1-1 1z"/></defs><g><g transform="translate(-769 -882)"><g><use fill="#26e6e6" xlink:href="#866ea"/></g><g><use fill="#2f3238" xlink:href="#866eb"/></g></g></g></svg>