<svg xmlns="http://www.w3.org/2000/svg" xmlns:xlink="http://www.w3.org/1999/xlink" width="38" height="60" viewBox="0 0 38 60"><defs><path id="24c0a" d="M1019 4245h30a4 4 0 0 1 4 4v52a4 4 0 0 1-4 4h-30a4 4 0 0 1-4-4v-52a4 4 0 0 1 4-4zm-2 4v44h29a1 1 0 0 1 0 2h-29v6a2 2 0 0 0 2 2h30a2 2 0 0 0 2-2v-44h-29a1 1 0 0 1 0-2h29v-6a2 2 0 0 0-2-2h-30a2 2 0 0 0-2 2z"/><path id="24c0b" d="M1034 4297a2 2 0 1 1 0 4 2 2 0 0 1 0-4zm-3-47h6a1 1 0 0 1 0 2h-6a1 1 0 1 1 0-2zm-9.715 15.357l4.073-4.073a.96.96 0 1 1 1.357 1.358l-4.073 4.072a.96.96 0 1 1-1.357-1.357zm0 6l10.073-10.073a.96.96 0 1 1 1.357 1.358l-10.073 10.073a.96.96 0 1 1-1.357-1.358z"/></defs><g><g transform="translate(-1015 -4245)"><g><use fill="#2f3238" xlink:href="#24c0a"/></g><g><use fill="#26e6e6" xlink:href="#24c0b"/></g></g></g></svg>