<svg xmlns="http://www.w3.org/2000/svg" xmlns:xlink="http://www.w3.org/1999/xlink" version="1.1" style="" xml:space="preserve" width="489.6" height="489.6"><rect id="backgroundrect" width="100%" height="100%" x="0" y="0" fill="none" stroke="none"/> <g class="currentLayer" style=""><title>Layer 1</title><g id="svg_1" class="selected" transform="rotate(-180 244.80000305175784,244.80000305175778) "><g id="svg_2">
	<g id="svg_3">
		<path style="fill:#FFFFFF" d="M244.8,489.6c135,0,244.8-109.8,244.8-244.8S379.8,0,244.8,0S0,109.8,0,244.8    S109.8,489.6,244.8,489.6z M244.8,19.8c124.1,0,225,100.9,225,225s-100.9,225-225,225s-225-100.9-225-225S120.7,19.8,244.8,19.8z" data-original="#2C2F33" class="" data-old_color="#FFFEFE" id="svg_4"/>
		<path style="fill:#FFFFFF" d="M210,326.1c1.9,1.9,4.5,2.9,7,2.9s5.1-1,7-2.9l74.3-74.3c1.9-1.9,2.9-4.4,2.9-7s-1-5.1-2.9-7    L224,163.5c-3.9-3.9-10.1-3.9-14,0s-3.9,10.1,0,14l67.3,67.3L210,312.1C206.2,316,206.2,322.3,210,326.1z" data-original="#3C92CA" class="active-path" data-old_color="#FDFDFD" id="svg_5"/>
	</g>
</g></g></g></svg>